<svg width="406" height="68" viewBox="0 0 406 68" fill="none" xmlns="http://www.w3.org/2000/svg">
<path d="M25.184 38.4827L22.4 20.4719C28.6462 18.5094 35.3538 18.5094 41.6 20.4719L38.816 38.4827C38.592 40.0337 37.216 41.1733 35.616 41.1733H28.352C27.5858 41.1743 26.8446 40.9032 26.2632 40.4095C25.6819 39.9158 25.2989 39.2321 25.184 38.4827ZM64 50.6693C64 48.1687 62.496 45.9213 60.16 44.8767C58.62 37.5578 54.2583 31.1202 48 26.9292L42.368 42.2495C41.92 43.5156 40.704 44.3386 39.36 44.3386H24.64C23.296 44.3386 22.08 43.5156 21.632 42.2495L16 26.9292C9.74976 31.1139 5.38924 37.5384 3.84 44.8451C1.504 45.9213 0 48.137 0 50.6693L20.64 56.4935C21.792 56.8101 22.976 57 24.16 57H39.776C40.96 57 42.144 56.8101 43.296 56.4935L64 50.6693Z" fill="url(#paint0_linear_338_30)"/>
<path d="M152.44 23.507C152.782 22.9117 153.289 22.4177 153.96 22.025C154.644 21.6197 155.436 21.417 156.335 21.417C157.26 21.417 158.096 21.6387 158.843 22.082C159.603 22.5253 160.198 23.1523 160.629 23.963C161.06 24.761 161.275 25.692 161.275 26.756C161.275 27.8073 161.06 28.7447 160.629 29.568C160.198 30.3913 159.603 31.031 158.843 31.487C158.096 31.943 157.26 32.171 156.335 32.171C155.448 32.171 154.663 31.9747 153.979 31.582C153.308 31.1767 152.795 30.6763 152.44 30.081V36.94H150.711V21.588H152.44V23.507ZM159.508 26.756C159.508 25.9707 159.35 25.2867 159.033 24.704C158.716 24.1213 158.286 23.678 157.741 23.374C157.209 23.07 156.62 22.918 155.974 22.918C155.341 22.918 154.752 23.0763 154.207 23.393C153.675 23.697 153.244 24.1467 152.915 24.742C152.598 25.3247 152.44 26.0023 152.44 26.775C152.44 27.5603 152.598 28.2507 152.915 28.846C153.244 29.4287 153.675 29.8783 154.207 30.195C154.752 30.499 155.341 30.651 155.974 30.651C156.62 30.651 157.209 30.499 157.741 30.195C158.286 29.8783 158.716 29.4287 159.033 28.846C159.35 28.2507 159.508 27.554 159.508 26.756ZM165.28 17.94V32H163.551V17.94H165.28ZM167.581 26.756C167.581 25.692 167.796 24.761 168.227 23.963C168.657 23.1523 169.246 22.5253 169.994 22.082C170.754 21.6387 171.596 21.417 172.521 21.417C173.433 21.417 174.224 21.6133 174.896 22.006C175.567 22.3987 176.067 22.8927 176.397 23.488V21.588H178.145V32H176.397V30.062C176.055 30.67 175.542 31.1767 174.858 31.582C174.186 31.9747 173.401 32.171 172.502 32.171C171.577 32.171 170.741 31.943 169.994 31.487C169.246 31.031 168.657 30.3913 168.227 29.568C167.796 28.7447 167.581 27.8073 167.581 26.756ZM176.397 26.775C176.397 25.9897 176.238 25.3057 175.922 24.723C175.605 24.1403 175.174 23.697 174.63 23.393C174.098 23.0763 173.509 22.918 172.863 22.918C172.217 22.918 171.628 23.07 171.096 23.374C170.564 23.678 170.139 24.1213 169.823 24.704C169.506 25.2867 169.348 25.9707 169.348 26.756C169.348 27.554 169.506 28.2507 169.823 28.846C170.139 29.4287 170.564 29.8783 171.096 30.195C171.628 30.499 172.217 30.651 172.863 30.651C173.509 30.651 174.098 30.499 174.63 30.195C175.174 29.8783 175.605 29.4287 175.922 28.846C176.238 28.2507 176.397 27.5603 176.397 26.775ZM186.14 21.398C187.406 21.398 188.432 21.7843 189.218 22.557C190.003 23.317 190.396 24.419 190.396 25.863V32H188.686V26.11C188.686 25.0713 188.426 24.2797 187.907 23.735C187.387 23.1777 186.678 22.899 185.779 22.899C184.867 22.899 184.138 23.184 183.594 23.754C183.062 24.324 182.796 25.1537 182.796 26.243V32H181.067V21.588H182.796V23.07C183.138 22.538 183.6 22.1263 184.183 21.835C184.778 21.5437 185.43 21.398 186.14 21.398ZM202.72 26.395C202.72 26.7243 202.701 27.0727 202.663 27.44H194.341C194.404 28.466 194.753 29.2703 195.386 29.853C196.032 30.423 196.811 30.708 197.723 30.708C198.47 30.708 199.091 30.537 199.585 30.195C200.092 29.8403 200.446 29.3717 200.649 28.789H202.511C202.232 29.7897 201.675 30.6067 200.839 31.24C200.003 31.8607 198.964 32.171 197.723 32.171C196.735 32.171 195.848 31.9493 195.063 31.506C194.29 31.0627 193.682 30.4357 193.239 29.625C192.796 28.8017 192.574 27.8517 192.574 26.775C192.574 25.6983 192.789 24.7547 193.22 23.944C193.651 23.1333 194.252 22.5127 195.025 22.082C195.81 21.6387 196.71 21.417 197.723 21.417C198.711 21.417 199.585 21.6323 200.345 22.063C201.105 22.4937 201.688 23.089 202.093 23.849C202.511 24.5963 202.72 25.445 202.72 26.395ZM200.934 26.034C200.934 25.3753 200.788 24.8117 200.497 24.343C200.206 23.8617 199.807 23.5007 199.3 23.26C198.806 23.0067 198.255 22.88 197.647 22.88C196.773 22.88 196.026 23.1587 195.405 23.716C194.797 24.2733 194.449 25.046 194.36 26.034H200.934ZM205.933 19.897C205.604 19.897 205.325 19.783 205.097 19.555C204.882 19.327 204.774 19.0483 204.774 18.719C204.774 18.3897 204.882 18.111 205.097 17.883C205.325 17.655 205.604 17.541 205.933 17.541C206.262 17.541 206.535 17.655 206.75 17.883C206.978 18.111 207.092 18.3897 207.092 18.719C207.092 19.0483 206.978 19.327 206.75 19.555C206.535 19.783 206.262 19.897 205.933 19.897ZM206.788 34.261C206.788 35.1857 206.554 35.8633 206.085 36.294C205.616 36.7247 204.932 36.94 204.033 36.94H203.026V35.477H203.748C204.229 35.477 204.565 35.382 204.755 35.192C204.958 35.002 205.059 34.679 205.059 34.223V21.588H206.788V34.261ZM209.069 26.756C209.069 25.692 209.284 24.761 209.715 23.963C210.146 23.1523 210.735 22.5253 211.482 22.082C212.242 21.6387 213.084 21.417 214.009 21.417C214.921 21.417 215.713 21.6133 216.384 22.006C217.055 22.3987 217.556 22.8927 217.885 23.488V21.588H219.633V32H217.885V30.062C217.543 30.67 217.03 31.1767 216.346 31.582C215.675 31.9747 214.889 32.171 213.99 32.171C213.065 32.171 212.229 31.943 211.482 31.487C210.735 31.031 210.146 30.3913 209.715 29.568C209.284 28.7447 209.069 27.8073 209.069 26.756ZM217.885 26.775C217.885 25.9897 217.727 25.3057 217.41 24.723C217.093 24.1403 216.663 23.697 216.118 23.393C215.586 23.0763 214.997 22.918 214.351 22.918C213.705 22.918 213.116 23.07 212.584 23.374C212.052 23.678 211.628 24.1213 211.311 24.704C210.994 25.2867 210.836 25.9707 210.836 26.756C210.836 27.554 210.994 28.2507 211.311 28.846C211.628 29.4287 212.052 29.8783 212.584 30.195C213.116 30.499 213.705 30.651 214.351 30.651C214.997 30.651 215.586 30.499 216.118 30.195C216.663 29.8783 217.093 29.4287 217.41 28.846C217.727 28.2507 217.885 27.5603 217.885 26.775ZM235.076 21.398C235.886 21.398 236.608 21.569 237.242 21.911C237.875 22.2403 238.375 22.7407 238.743 23.412C239.11 24.0833 239.294 24.9003 239.294 25.863V32H237.584V26.11C237.584 25.0713 237.324 24.2797 236.805 23.735C236.298 23.1777 235.608 22.899 234.734 22.899C233.834 22.899 233.119 23.1903 232.587 23.773C232.055 24.343 231.789 25.1727 231.789 26.262V32H230.079V26.11C230.079 25.0713 229.819 24.2797 229.3 23.735C228.793 23.1777 228.103 22.899 227.229 22.899C226.329 22.899 225.614 23.1903 225.082 23.773C224.55 24.343 224.284 25.1727 224.284 26.262V32H222.555V21.588H224.284V23.089C224.626 22.5443 225.082 22.1263 225.652 21.835C226.234 21.5437 226.874 21.398 227.571 21.398C228.445 21.398 229.217 21.5943 229.889 21.987C230.56 22.3797 231.06 22.956 231.39 23.716C231.681 22.9813 232.162 22.4113 232.834 22.006C233.505 21.6007 234.252 21.398 235.076 21.398ZM251.63 26.395C251.63 26.7243 251.611 27.0727 251.573 27.44H243.251C243.314 28.466 243.663 29.2703 244.296 29.853C244.942 30.423 245.721 30.708 246.633 30.708C247.38 30.708 248.001 30.537 248.495 30.195C249.002 29.8403 249.356 29.3717 249.559 28.789H251.421C251.142 29.7897 250.585 30.6067 249.749 31.24C248.913 31.8607 247.874 32.171 246.633 32.171C245.645 32.171 244.758 31.9493 243.973 31.506C243.2 31.0627 242.592 30.4357 242.149 29.625C241.706 28.8017 241.484 27.8517 241.484 26.775C241.484 25.6983 241.699 24.7547 242.13 23.944C242.561 23.1333 243.162 22.5127 243.935 22.082C244.72 21.6387 245.62 21.417 246.633 21.417C247.621 21.417 248.495 21.6323 249.255 22.063C250.015 22.4937 250.598 23.089 251.003 23.849C251.421 24.5963 251.63 25.445 251.63 26.395ZM249.844 26.034C249.844 25.3753 249.698 24.8117 249.407 24.343C249.116 23.8617 248.717 23.5007 248.21 23.26C247.716 23.0067 247.165 22.88 246.557 22.88C245.683 22.88 244.936 23.1587 244.315 23.716C243.707 24.2733 243.359 25.046 243.27 26.034H249.844ZM258.985 21.398C260.252 21.398 261.278 21.7843 262.063 22.557C262.849 23.317 263.241 24.419 263.241 25.863V32H261.531V26.11C261.531 25.0713 261.272 24.2797 260.752 23.735C260.233 23.1777 259.524 22.899 258.624 22.899C257.712 22.899 256.984 23.184 256.439 23.754C255.907 24.324 255.641 25.1537 255.641 26.243V32H253.912V21.588H255.641V23.07C255.983 22.538 256.446 22.1263 257.028 21.835C257.624 21.5437 258.276 21.398 258.985 21.398ZM268.175 23.013V29.15C268.175 29.6567 268.282 30.0177 268.498 30.233C268.713 30.4357 269.087 30.537 269.619 30.537H270.892V32H269.334C268.371 32 267.649 31.7783 267.168 31.335C266.686 30.8917 266.446 30.1633 266.446 29.15V23.013H265.097V21.588H266.446V18.966H268.175V21.588H270.892V23.013H268.175ZM277.527 32.171C276.552 32.171 275.665 31.9493 274.867 31.506C274.082 31.0627 273.461 30.4357 273.005 29.625C272.562 28.8017 272.34 27.8517 272.34 26.775C272.34 25.711 272.568 24.7737 273.024 23.963C273.493 23.1397 274.126 22.5127 274.924 22.082C275.722 21.6387 276.615 21.417 277.603 21.417C278.591 21.417 279.484 21.6387 280.282 22.082C281.08 22.5127 281.707 23.1333 282.163 23.944C282.632 24.7547 282.866 25.6983 282.866 26.775C282.866 27.8517 282.626 28.8017 282.144 29.625C281.676 30.4357 281.036 31.0627 280.225 31.506C279.415 31.9493 278.515 32.171 277.527 32.171ZM277.527 30.651C278.148 30.651 278.731 30.5053 279.275 30.214C279.82 29.9227 280.257 29.4857 280.586 28.903C280.928 28.3203 281.099 27.611 281.099 26.775C281.099 25.939 280.935 25.2297 280.605 24.647C280.276 24.0643 279.845 23.6337 279.313 23.355C278.781 23.0637 278.205 22.918 277.584 22.918C276.951 22.918 276.368 23.0637 275.836 23.355C275.317 23.6337 274.899 24.0643 274.582 24.647C274.266 25.2297 274.107 25.939 274.107 26.775C274.107 27.6237 274.259 28.3393 274.563 28.922C274.88 29.5047 275.298 29.9417 275.817 30.233C276.337 30.5117 276.907 30.651 277.527 30.651ZM299.705 26.395C299.705 26.7243 299.686 27.0727 299.648 27.44H291.326C291.39 28.466 291.738 29.2703 292.371 29.853C293.017 30.423 293.796 30.708 294.708 30.708C295.456 30.708 296.076 30.537 296.57 30.195C297.077 29.8403 297.432 29.3717 297.634 28.789H299.496C299.218 29.7897 298.66 30.6067 297.824 31.24C296.988 31.8607 295.95 32.171 294.708 32.171C293.72 32.171 292.834 31.9493 292.048 31.506C291.276 31.0627 290.668 30.4357 290.224 29.625C289.781 28.8017 289.559 27.8517 289.559 26.775C289.559 25.6983 289.775 24.7547 290.205 23.944C290.636 23.1333 291.238 22.5127 292.01 22.082C292.796 21.6387 293.695 21.417 294.708 21.417C295.696 21.417 296.57 21.6323 297.33 22.063C298.09 22.4937 298.673 23.089 299.078 23.849C299.496 24.5963 299.705 25.445 299.705 26.395ZM297.919 26.034C297.919 25.3753 297.774 24.8117 297.482 24.343C297.191 23.8617 296.792 23.5007 296.285 23.26C295.791 23.0067 295.24 22.88 294.632 22.88C293.758 22.88 293.011 23.1587 292.39 23.716C291.782 24.2733 291.434 25.046 291.345 26.034H297.919ZM311.347 21.417C312.246 21.417 313.032 21.6133 313.703 22.006C314.387 22.3987 314.894 22.8927 315.223 23.488V21.588H316.971V32.228C316.971 33.178 316.768 34.0203 316.363 34.755C315.958 35.5023 315.375 36.085 314.615 36.503C313.868 36.921 312.994 37.13 311.993 37.13C310.625 37.13 309.485 36.807 308.573 36.161C307.661 35.515 307.123 34.6347 306.958 33.52H308.668C308.858 34.1533 309.251 34.66 309.846 35.04C310.441 35.4327 311.157 35.629 311.993 35.629C312.943 35.629 313.716 35.3313 314.311 34.736C314.919 34.1407 315.223 33.3047 315.223 32.228V30.043C314.881 30.651 314.374 31.1577 313.703 31.563C313.032 31.9683 312.246 32.171 311.347 32.171C310.422 32.171 309.58 31.943 308.82 31.487C308.073 31.031 307.484 30.3913 307.053 29.568C306.622 28.7447 306.407 27.8073 306.407 26.756C306.407 25.692 306.622 24.761 307.053 23.963C307.484 23.1523 308.073 22.5253 308.82 22.082C309.58 21.6387 310.422 21.417 311.347 21.417ZM315.223 26.775C315.223 25.9897 315.065 25.3057 314.748 24.723C314.431 24.1403 314.001 23.697 313.456 23.393C312.924 23.0763 312.335 22.918 311.689 22.918C311.043 22.918 310.454 23.07 309.922 23.374C309.39 23.678 308.966 24.1213 308.649 24.704C308.332 25.2867 308.174 25.9707 308.174 26.756C308.174 27.554 308.332 28.2507 308.649 28.846C308.966 29.4287 309.39 29.8783 309.922 30.195C310.454 30.499 311.043 30.651 311.689 30.651C312.335 30.651 312.924 30.499 313.456 30.195C314.001 29.8783 314.431 29.4287 314.748 28.846C315.065 28.2507 315.223 27.5603 315.223 26.775ZM329.393 26.395C329.393 26.7243 329.374 27.0727 329.336 27.44H321.014C321.077 28.466 321.425 29.2703 322.059 29.853C322.705 30.423 323.484 30.708 324.396 30.708C325.143 30.708 325.764 30.537 326.258 30.195C326.764 29.8403 327.119 29.3717 327.322 28.789H329.184C328.905 29.7897 328.348 30.6067 327.512 31.24C326.676 31.8607 325.637 32.171 324.396 32.171C323.408 32.171 322.521 31.9493 321.736 31.506C320.963 31.0627 320.355 30.4357 319.912 29.625C319.468 28.8017 319.247 27.8517 319.247 26.775C319.247 25.6983 319.462 24.7547 319.893 23.944C320.323 23.1333 320.925 22.5127 321.698 22.082C322.483 21.6387 323.382 21.417 324.396 21.417C325.384 21.417 326.258 21.6323 327.018 22.063C327.778 22.4937 328.36 23.089 328.766 23.849C329.184 24.5963 329.393 25.445 329.393 26.395ZM327.607 26.034C327.607 25.3753 327.461 24.8117 327.17 24.343C326.878 23.8617 326.479 23.5007 325.973 23.26C325.479 23.0067 324.928 22.88 324.32 22.88C323.446 22.88 322.698 23.1587 322.078 23.716C321.47 24.2733 321.121 25.046 321.033 26.034H327.607ZM335.361 32.171C334.563 32.171 333.847 32.038 333.214 31.772C332.581 31.4933 332.08 31.1133 331.713 30.632C331.346 30.138 331.143 29.5743 331.105 28.941H332.891C332.942 29.4603 333.182 29.8847 333.613 30.214C334.056 30.5433 334.633 30.708 335.342 30.708C336.001 30.708 336.52 30.5623 336.9 30.271C337.28 29.9797 337.47 29.6123 337.47 29.169C337.47 28.713 337.267 28.3773 336.862 28.162C336.457 27.934 335.83 27.7123 334.981 27.497C334.208 27.2943 333.575 27.0917 333.081 26.889C332.6 26.6737 332.182 26.3633 331.827 25.958C331.485 25.54 331.314 24.9953 331.314 24.324C331.314 23.792 331.472 23.3043 331.789 22.861C332.106 22.4177 332.555 22.0693 333.138 21.816C333.721 21.55 334.386 21.417 335.133 21.417C336.286 21.417 337.217 21.7083 337.926 22.291C338.635 22.8737 339.015 23.6717 339.066 24.685H337.337C337.299 24.1403 337.077 23.7033 336.672 23.374C336.279 23.0447 335.747 22.88 335.076 22.88C334.455 22.88 333.961 23.013 333.594 23.279C333.227 23.545 333.043 23.8933 333.043 24.324C333.043 24.666 333.151 24.951 333.366 25.179C333.594 25.3943 333.873 25.5717 334.202 25.711C334.544 25.8377 335.013 25.9833 335.608 26.148C336.355 26.3507 336.963 26.5533 337.432 26.756C337.901 26.946 338.3 27.2373 338.629 27.63C338.971 28.0227 339.148 28.5357 339.161 29.169C339.161 29.739 339.003 30.252 338.686 30.708C338.369 31.164 337.92 31.525 337.337 31.791C336.767 32.0443 336.108 32.171 335.361 32.171ZM343.711 23.013V29.15C343.711 29.6567 343.818 30.0177 344.034 30.233C344.249 30.4357 344.623 30.537 345.155 30.537H346.428V32H344.87C343.907 32 343.185 31.7783 342.704 31.335C342.222 30.8917 341.982 30.1633 341.982 29.15V23.013H340.633V21.588H341.982V18.966H343.711V21.588H346.428V23.013H343.711ZM347.877 26.756C347.877 25.692 348.092 24.761 348.523 23.963C348.953 23.1523 349.542 22.5253 350.29 22.082C351.05 21.6387 351.892 21.417 352.817 21.417C353.729 21.417 354.52 21.6133 355.192 22.006C355.863 22.3987 356.363 22.8927 356.693 23.488V21.588H358.441V32H356.693V30.062C356.351 30.67 355.838 31.1767 355.154 31.582C354.482 31.9747 353.697 32.171 352.798 32.171C351.873 32.171 351.037 31.943 350.29 31.487C349.542 31.031 348.953 30.3913 348.523 29.568C348.092 28.7447 347.877 27.8073 347.877 26.756ZM356.693 26.775C356.693 25.9897 356.534 25.3057 356.218 24.723C355.901 24.1403 355.47 23.697 354.926 23.393C354.394 23.0763 353.805 22.918 353.159 22.918C352.513 22.918 351.924 23.07 351.392 23.374C350.86 23.678 350.435 24.1213 350.119 24.704C349.802 25.2867 349.644 25.9707 349.644 26.756C349.644 27.554 349.802 28.2507 350.119 28.846C350.435 29.4287 350.86 29.8783 351.392 30.195C351.924 30.499 352.513 30.651 353.159 30.651C353.805 30.651 354.394 30.499 354.926 30.195C355.47 29.8783 355.901 29.4287 356.218 28.846C356.534 28.2507 356.693 27.5603 356.693 26.775ZM350.708 20.467C350.796 19.821 351.005 19.327 351.335 18.985C351.677 18.643 352.101 18.472 352.608 18.472C352.848 18.472 353.051 18.5163 353.216 18.605C353.393 18.681 353.602 18.795 353.843 18.947C354.02 19.0737 354.178 19.175 354.318 19.251C354.457 19.3143 354.609 19.346 354.774 19.346C354.989 19.346 355.173 19.2763 355.325 19.137C355.477 18.9977 355.572 18.795 355.61 18.529H356.598C356.522 19.1623 356.313 19.65 355.971 19.992C355.629 20.334 355.204 20.505 354.698 20.505C354.457 20.505 354.242 20.467 354.052 20.391C353.874 20.3023 353.672 20.1757 353.444 20.011C353.241 19.8843 353.076 19.7893 352.95 19.726C352.836 19.6627 352.696 19.631 352.532 19.631C352.316 19.631 352.133 19.7007 351.981 19.84C351.841 19.9793 351.753 20.1883 351.715 20.467H350.708ZM365.903 32.171C364.928 32.171 364.041 31.9493 363.243 31.506C362.458 31.0627 361.837 30.4357 361.381 29.625C360.938 28.8017 360.716 27.8517 360.716 26.775C360.716 25.711 360.944 24.7737 361.4 23.963C361.869 23.1397 362.502 22.5127 363.3 22.082C364.098 21.6387 364.991 21.417 365.979 21.417C366.967 21.417 367.86 21.6387 368.658 22.082C369.456 22.5127 370.083 23.1333 370.539 23.944C371.008 24.7547 371.242 25.6983 371.242 26.775C371.242 27.8517 371.002 28.8017 370.52 29.625C370.052 30.4357 369.412 31.0627 368.601 31.506C367.791 31.9493 366.891 32.171 365.903 32.171ZM365.903 30.651C366.524 30.651 367.107 30.5053 367.651 30.214C368.196 29.9227 368.633 29.4857 368.962 28.903C369.304 28.3203 369.475 27.611 369.475 26.775C369.475 25.939 369.311 25.2297 368.981 24.647C368.652 24.0643 368.221 23.6337 367.689 23.355C367.157 23.0637 366.581 22.918 365.96 22.918C365.327 22.918 364.744 23.0637 364.212 23.355C363.693 23.6337 363.275 24.0643 362.958 24.647C362.642 25.2297 362.483 25.939 362.483 26.775C362.483 27.6237 362.635 28.3393 362.939 28.922C363.256 29.5047 363.674 29.9417 364.193 30.233C364.713 30.5117 365.283 30.651 365.903 30.651ZM377.935 26.756C377.935 25.692 378.15 24.761 378.581 23.963C379.012 23.1523 379.601 22.5253 380.348 22.082C381.108 21.6387 381.957 21.417 382.894 21.417C383.705 21.417 384.458 21.607 385.155 21.987C385.852 22.3543 386.384 22.842 386.751 23.45V17.94H388.499V32H386.751V30.043C386.409 30.6637 385.902 31.1767 385.231 31.582C384.56 31.9747 383.774 32.171 382.875 32.171C381.95 32.171 381.108 31.943 380.348 31.487C379.601 31.031 379.012 30.3913 378.581 29.568C378.15 28.7447 377.935 27.8073 377.935 26.756ZM386.751 26.775C386.751 25.9897 386.593 25.3057 386.276 24.723C385.959 24.1403 385.529 23.697 384.984 23.393C384.452 23.0763 383.863 22.918 383.217 22.918C382.571 22.918 381.982 23.07 381.45 23.374C380.918 23.678 380.494 24.1213 380.177 24.704C379.86 25.2867 379.702 25.9707 379.702 26.756C379.702 27.554 379.86 28.2507 380.177 28.846C380.494 29.4287 380.918 29.8783 381.45 30.195C381.982 30.499 382.571 30.651 383.217 30.651C383.863 30.651 384.452 30.499 384.984 30.195C385.529 29.8783 385.959 29.4287 386.276 28.846C386.593 28.2507 386.751 27.5603 386.751 26.775ZM400.921 26.395C400.921 26.7243 400.902 27.0727 400.864 27.44H392.542C392.605 28.466 392.954 29.2703 393.587 29.853C394.233 30.423 395.012 30.708 395.924 30.708C396.671 30.708 397.292 30.537 397.786 30.195C398.293 29.8403 398.647 29.3717 398.85 28.789H400.712C400.433 29.7897 399.876 30.6067 399.04 31.24C398.204 31.8607 397.165 32.171 395.924 32.171C394.936 32.171 394.049 31.9493 393.264 31.506C392.491 31.0627 391.883 30.4357 391.44 29.625C390.997 28.8017 390.775 27.8517 390.775 26.775C390.775 25.6983 390.99 24.7547 391.421 23.944C391.852 23.1333 392.453 22.5127 393.226 22.082C394.011 21.6387 394.911 21.417 395.924 21.417C396.912 21.417 397.786 21.6323 398.546 22.063C399.306 22.4937 399.889 23.089 400.294 23.849C400.712 24.5963 400.921 25.445 400.921 26.395ZM399.135 26.034C399.135 25.3753 398.989 24.8117 398.698 24.343C398.407 23.8617 398.008 23.5007 397.501 23.26C397.007 23.0067 396.456 22.88 395.848 22.88C394.974 22.88 394.227 23.1587 393.606 23.716C392.998 24.2733 392.65 25.046 392.561 26.034H399.135Z" fill="white"/>
<path d="M84.94 50.48C84.94 51.2933 84.7533 52.04 84.38 52.72C84.0067 53.3867 83.4333 53.9267 82.66 54.34C81.8867 54.7533 80.9267 54.96 79.78 54.96H77.66V60H74.24V45.96H79.78C80.9 45.96 81.8467 46.1533 82.62 46.54C83.3933 46.9267 83.9733 47.46 84.36 48.14C84.7467 48.82 84.94 49.6 84.94 50.48ZM79.52 52.24C80.1733 52.24 80.66 52.0867 80.98 51.78C81.3 51.4733 81.46 51.04 81.46 50.48C81.46 49.92 81.3 49.4867 80.98 49.18C80.66 48.8733 80.1733 48.72 79.52 48.72H77.66V52.24H79.52ZM93.8805 60L90.9605 54.7H90.1405V60H86.7205V45.96H92.4605C93.5671 45.96 94.5071 46.1533 95.2805 46.54C96.0671 46.9267 96.6538 47.46 97.0405 48.14C97.4271 48.8067 97.6205 49.5533 97.6205 50.38C97.6205 51.3133 97.3538 52.1467 96.8205 52.88C96.3005 53.6133 95.5271 54.1333 94.5005 54.44L97.7405 60H93.8805ZM90.1405 52.28H92.2605C92.8871 52.28 93.3538 52.1267 93.6605 51.82C93.9805 51.5133 94.1405 51.08 94.1405 50.52C94.1405 49.9867 93.9805 49.5667 93.6605 49.26C93.3538 48.9533 92.8871 48.8 92.2605 48.8H90.1405V52.28ZM106.407 60.14C105.087 60.14 103.874 59.8333 102.767 59.22C101.674 58.6067 100.801 57.7533 100.147 56.66C99.5073 55.5533 99.1873 54.3133 99.1873 52.94C99.1873 51.5667 99.5073 50.3333 100.147 49.24C100.801 48.1467 101.674 47.2933 102.767 46.68C103.874 46.0667 105.087 45.76 106.407 45.76C107.727 45.76 108.934 46.0667 110.027 46.68C111.134 47.2933 112.001 48.1467 112.627 49.24C113.267 50.3333 113.587 51.5667 113.587 52.94C113.587 54.3133 113.267 55.5533 112.627 56.66C111.987 57.7533 111.121 58.6067 110.027 59.22C108.934 59.8333 107.727 60.14 106.407 60.14ZM106.407 57.02C107.527 57.02 108.421 56.6467 109.087 55.9C109.767 55.1533 110.107 54.1667 110.107 52.94C110.107 51.7 109.767 50.7133 109.087 49.98C108.421 49.2333 107.527 48.86 106.407 48.86C105.274 48.86 104.367 49.2267 103.687 49.96C103.021 50.6933 102.687 51.6867 102.687 52.94C102.687 54.18 103.021 55.1733 103.687 55.92C104.367 56.6533 105.274 57.02 106.407 57.02ZM124.29 45.96V55.52C124.29 57 123.87 58.14 123.03 58.94C122.203 59.74 121.083 60.14 119.67 60.14C118.19 60.14 117.003 59.72 116.11 58.88C115.217 58.04 114.77 56.8467 114.77 55.3H118.17C118.17 55.8867 118.29 56.3333 118.53 56.64C118.77 56.9333 119.117 57.08 119.57 57.08C119.983 57.08 120.303 56.9467 120.53 56.68C120.757 56.4133 120.87 56.0267 120.87 55.52V45.96H124.29ZM130.473 48.7V51.54H135.053V54.18H130.473V57.26H135.653V60H127.053V45.96H135.653V48.7H130.473ZM147.973 45.96V48.7H144.253V60H140.833V48.7H137.113V45.96H147.973ZM156.329 60.14C155.009 60.14 153.796 59.8333 152.689 59.22C151.596 58.6067 150.723 57.7533 150.069 56.66C149.429 55.5533 149.109 54.3133 149.109 52.94C149.109 51.5667 149.429 50.3333 150.069 49.24C150.723 48.1467 151.596 47.2933 152.689 46.68C153.796 46.0667 155.009 45.76 156.329 45.76C157.649 45.76 158.856 46.0667 159.949 46.68C161.056 47.2933 161.923 48.1467 162.549 49.24C163.189 50.3333 163.509 51.5667 163.509 52.94C163.509 54.3133 163.189 55.5533 162.549 56.66C161.909 57.7533 161.043 58.6067 159.949 59.22C158.856 59.8333 157.649 60.14 156.329 60.14ZM156.329 57.02C157.449 57.02 158.343 56.6467 159.009 55.9C159.689 55.1533 160.029 54.1667 160.029 52.94C160.029 51.7 159.689 50.7133 159.009 49.98C158.343 49.2333 157.449 48.86 156.329 48.86C155.196 48.86 154.289 49.2267 153.609 49.96C152.943 50.6933 152.609 51.6867 152.609 52.94C152.609 54.18 152.943 55.1733 153.609 55.92C154.289 56.6533 155.196 57.02 156.329 57.02ZM170.492 60.14C169.465 60.14 168.545 59.9733 167.732 59.64C166.919 59.3067 166.265 58.8133 165.772 58.16C165.292 57.5067 165.039 56.72 165.012 55.8H168.652C168.705 56.32 168.885 56.72 169.192 57C169.499 57.2667 169.899 57.4 170.392 57.4C170.899 57.4 171.299 57.2867 171.592 57.06C171.885 56.82 172.032 56.4933 172.032 56.08C172.032 55.7333 171.912 55.4467 171.672 55.22C171.445 54.9933 171.159 54.8067 170.812 54.66C170.479 54.5133 169.999 54.3467 169.372 54.16C168.465 53.88 167.725 53.6 167.152 53.32C166.579 53.04 166.085 52.6267 165.672 52.08C165.259 51.5333 165.052 50.82 165.052 49.94C165.052 48.6333 165.525 47.6133 166.472 46.88C167.419 46.1333 168.652 45.76 170.172 45.76C171.719 45.76 172.965 46.1333 173.912 46.88C174.859 47.6133 175.365 48.64 175.432 49.96H171.732C171.705 49.5067 171.539 49.1533 171.232 48.9C170.925 48.6333 170.532 48.5 170.052 48.5C169.639 48.5 169.305 48.6133 169.052 48.84C168.799 49.0533 168.672 49.3667 168.672 49.78C168.672 50.2333 168.885 50.5867 169.312 50.84C169.739 51.0933 170.405 51.3667 171.312 51.66C172.219 51.9667 172.952 52.26 173.512 52.54C174.085 52.82 174.579 53.2267 174.992 53.76C175.405 54.2933 175.612 54.98 175.612 55.82C175.612 56.62 175.405 57.3467 174.992 58C174.592 58.6533 174.005 59.1733 173.232 59.56C172.459 59.9467 171.545 60.14 170.492 60.14ZM197.855 45.96V60H194.435V51.58L191.295 60H188.535L185.375 51.56V60H181.955V45.96H185.995L189.935 55.68L193.835 45.96H197.855ZM203.674 45.96V54.36C203.674 55.2 203.881 55.8467 204.294 56.3C204.708 56.7533 205.314 56.98 206.114 56.98C206.914 56.98 207.528 56.7533 207.954 56.3C208.381 55.8467 208.594 55.2 208.594 54.36V45.96H212.014V54.34C212.014 55.5933 211.748 56.6533 211.214 57.52C210.681 58.3867 209.961 59.04 209.054 59.48C208.161 59.92 207.161 60.14 206.054 60.14C204.948 60.14 203.954 59.9267 203.074 59.5C202.208 59.06 201.521 58.4067 201.014 57.54C200.508 56.66 200.254 55.5933 200.254 54.34V45.96H203.674ZM217.836 57.36H222.316V60H214.416V45.96H217.836V57.36ZM234.047 45.96V48.7H230.327V60H226.907V48.7H223.187V45.96H234.047ZM239.183 45.96V60H235.763V45.96H239.183ZM246.922 45.96C248.402 45.96 249.695 46.2533 250.802 46.84C251.909 47.4267 252.762 48.2533 253.362 49.32C253.975 50.3733 254.282 51.5933 254.282 52.98C254.282 54.3533 253.975 55.5733 253.362 56.64C252.762 57.7067 251.902 58.5333 250.782 59.12C249.675 59.7067 248.389 60 246.922 60H241.662V45.96H246.922ZM246.702 57.04C247.995 57.04 249.002 56.6867 249.722 55.98C250.442 55.2733 250.802 54.2733 250.802 52.98C250.802 51.6867 250.442 50.68 249.722 49.96C249.002 49.24 247.995 48.88 246.702 48.88H245.082V57.04H246.702ZM259.613 45.96V60H256.193V45.96H259.613ZM267.172 60.14C266.145 60.14 265.225 59.9733 264.412 59.64C263.598 59.3067 262.945 58.8133 262.452 58.16C261.972 57.5067 261.718 56.72 261.692 55.8H265.332C265.385 56.32 265.565 56.72 265.872 57C266.178 57.2667 266.578 57.4 267.072 57.4C267.578 57.4 267.978 57.2867 268.272 57.06C268.565 56.82 268.712 56.4933 268.712 56.08C268.712 55.7333 268.592 55.4467 268.352 55.22C268.125 54.9933 267.838 54.8067 267.492 54.66C267.158 54.5133 266.678 54.3467 266.052 54.16C265.145 53.88 264.405 53.6 263.832 53.32C263.258 53.04 262.765 52.6267 262.352 52.08C261.938 51.5333 261.732 50.82 261.732 49.94C261.732 48.6333 262.205 47.6133 263.152 46.88C264.098 46.1333 265.332 45.76 266.852 45.76C268.398 45.76 269.645 46.1333 270.592 46.88C271.538 47.6133 272.045 48.64 272.112 49.96H268.412C268.385 49.5067 268.218 49.1533 267.912 48.9C267.605 48.6333 267.212 48.5 266.732 48.5C266.318 48.5 265.985 48.6133 265.732 48.84C265.478 49.0533 265.352 49.3667 265.352 49.78C265.352 50.2333 265.565 50.5867 265.992 50.84C266.418 51.0933 267.085 51.3667 267.992 51.66C268.898 51.9667 269.632 52.26 270.192 52.54C270.765 52.82 271.258 53.2267 271.672 53.76C272.085 54.2933 272.292 54.98 272.292 55.82C272.292 56.62 272.085 57.3467 271.672 58C271.272 58.6533 270.685 59.1733 269.912 59.56C269.138 59.9467 268.225 60.14 267.172 60.14ZM273.816 52.96C273.816 51.5733 274.116 50.34 274.716 49.26C275.316 48.1667 276.15 47.32 277.216 46.72C278.296 46.1067 279.516 45.8 280.876 45.8C282.543 45.8 283.97 46.24 285.156 47.12C286.343 48 287.136 49.2 287.536 50.72H283.776C283.496 50.1333 283.096 49.6867 282.576 49.38C282.07 49.0733 281.49 48.92 280.836 48.92C279.783 48.92 278.93 49.2867 278.276 50.02C277.623 50.7533 277.296 51.7333 277.296 52.96C277.296 54.1867 277.623 55.1667 278.276 55.9C278.93 56.6333 279.783 57 280.836 57C281.49 57 282.07 56.8467 282.576 56.54C283.096 56.2333 283.496 55.7867 283.776 55.2H287.536C287.136 56.72 286.343 57.92 285.156 58.8C283.97 59.6667 282.543 60.1 280.876 60.1C279.516 60.1 278.296 59.8 277.216 59.2C276.15 58.5867 275.316 57.74 274.716 56.66C274.116 55.58 273.816 54.3467 273.816 52.96ZM293.051 45.96V60H289.631V45.96H293.051ZM306.229 50.48C306.229 51.2933 306.042 52.04 305.669 52.72C305.296 53.3867 304.722 53.9267 303.949 54.34C303.176 54.7533 302.216 54.96 301.069 54.96H298.949V60H295.529V45.96H301.069C302.189 45.96 303.136 46.1533 303.909 46.54C304.682 46.9267 305.262 47.46 305.649 48.14C306.036 48.82 306.229 49.6 306.229 50.48ZM300.809 52.24C301.462 52.24 301.949 52.0867 302.269 51.78C302.589 51.4733 302.749 51.04 302.749 50.48C302.749 49.92 302.589 49.4867 302.269 49.18C301.949 48.8733 301.462 48.72 300.809 48.72H298.949V52.24H300.809ZM311.43 57.36H315.91V60H308.01V45.96H311.43V57.36ZM320.961 45.96V60H317.541V45.96H320.961ZM335.999 60H332.579L326.859 51.34V60H323.439V45.96H326.859L332.579 54.66V45.96H335.999V60ZM347.218 57.52H341.978L341.138 60H337.558L342.638 45.96H346.598L351.678 60H348.058L347.218 57.52ZM346.338 54.88L344.598 49.74L342.878 54.88H346.338ZM360.384 60L357.464 54.7H356.644V60H353.224V45.96H358.964C360.071 45.96 361.011 46.1533 361.784 46.54C362.571 46.9267 363.158 47.46 363.544 48.14C363.931 48.8067 364.124 49.5533 364.124 50.38C364.124 51.3133 363.858 52.1467 363.324 52.88C362.804 53.6133 362.031 54.1333 361.004 54.44L364.244 60H360.384ZM356.644 52.28H358.764C359.391 52.28 359.858 52.1267 360.164 51.82C360.484 51.5133 360.644 51.08 360.644 50.52C360.644 49.9867 360.484 49.5667 360.164 49.26C359.858 48.9533 359.391 48.8 358.764 48.8H356.644V52.28ZM369.691 48.7V51.54H374.271V54.18H369.691V57.26H374.871V60H366.271V45.96H374.871V48.7H369.691ZM382.172 60.14C381.145 60.14 380.225 59.9733 379.412 59.64C378.598 59.3067 377.945 58.8133 377.452 58.16C376.972 57.5067 376.718 56.72 376.692 55.8H380.332C380.385 56.32 380.565 56.72 380.872 57C381.178 57.2667 381.578 57.4 382.072 57.4C382.578 57.4 382.978 57.2867 383.272 57.06C383.565 56.82 383.712 56.4933 383.712 56.08C383.712 55.7333 383.592 55.4467 383.352 55.22C383.125 54.9933 382.838 54.8067 382.492 54.66C382.158 54.5133 381.678 54.3467 381.052 54.16C380.145 53.88 379.405 53.6 378.832 53.32C378.258 53.04 377.765 52.6267 377.352 52.08C376.938 51.5333 376.732 50.82 376.732 49.94C376.732 48.6333 377.205 47.6133 378.152 46.88C379.098 46.1333 380.332 45.76 381.852 45.76C383.398 45.76 384.645 46.1333 385.592 46.88C386.538 47.6133 387.045 48.64 387.112 49.96H383.412C383.385 49.5067 383.218 49.1533 382.912 48.9C382.605 48.6333 382.212 48.5 381.732 48.5C381.318 48.5 380.985 48.6133 380.732 48.84C380.478 49.0533 380.352 49.3667 380.352 49.78C380.352 50.2333 380.565 50.5867 380.992 50.84C381.418 51.0933 382.085 51.3667 382.992 51.66C383.898 51.9667 384.632 52.26 385.192 52.54C385.765 52.82 386.258 53.2267 386.672 53.76C387.085 54.2933 387.292 54.98 387.292 55.82C387.292 56.62 387.085 57.3467 386.672 58C386.272 58.6533 385.685 59.1733 384.912 59.56C384.138 59.9467 383.225 60.14 382.172 60.14Z" fill="#01B4E5"/>
<path d="M73.627 27.312C73.627 25.9947 73.912 24.823 74.482 23.797C75.052 22.7583 75.8437 21.954 76.857 21.384C77.883 20.8013 79.042 20.51 80.334 20.51C81.9173 20.51 83.2727 20.928 84.4 21.764C85.5273 22.6 86.281 23.74 86.661 25.184H83.089C82.823 24.6267 82.443 24.2023 81.949 23.911C81.4677 23.6197 80.9167 23.474 80.296 23.474C79.2953 23.474 78.4847 23.8223 77.864 24.519C77.2433 25.2157 76.933 26.1467 76.933 27.312C76.933 28.4773 77.2433 29.4083 77.864 30.105C78.4847 30.8017 79.2953 31.15 80.296 31.15C80.9167 31.15 81.4677 31.0043 81.949 30.713C82.443 30.4217 82.823 29.9973 83.089 29.44H86.661C86.281 30.884 85.5273 32.024 84.4 32.86C83.2727 33.6833 81.9173 34.095 80.334 34.095C79.042 34.095 77.883 33.81 76.857 33.24C75.8437 32.6573 75.052 31.853 74.482 30.827C73.912 29.801 73.627 28.6293 73.627 27.312ZM91.8427 20.662V28.642C91.8427 29.44 92.039 30.0543 92.4317 30.485C92.8243 30.9157 93.4007 31.131 94.1607 31.131C94.9207 31.131 95.5033 30.9157 95.9087 30.485C96.314 30.0543 96.5167 29.44 96.5167 28.642V20.662H99.7657V28.623C99.7657 29.8137 99.5123 30.8207 99.0057 31.644C98.499 32.4673 97.815 33.088 96.9537 33.506C96.105 33.924 95.155 34.133 94.1037 34.133C93.0523 34.133 92.1087 33.9303 91.2727 33.525C90.4493 33.107 89.797 32.4863 89.3157 31.663C88.8343 30.827 88.5937 29.8137 88.5937 28.623V20.662H91.8427ZM108.849 34L106.075 28.965H105.296V34H102.047V20.662H107.5C108.551 20.662 109.444 20.8457 110.179 21.213C110.926 21.5803 111.484 22.087 111.851 22.733C112.218 23.3663 112.402 24.0757 112.402 24.861C112.402 25.7477 112.149 26.5393 111.642 27.236C111.148 27.9327 110.413 28.4267 109.438 28.718L112.516 34H108.849ZM105.296 26.666H107.31C107.905 26.666 108.349 26.5203 108.64 26.229C108.944 25.9377 109.096 25.526 109.096 24.994C109.096 24.4873 108.944 24.0883 108.64 23.797C108.349 23.5057 107.905 23.36 107.31 23.36H105.296V26.666ZM119.268 34.133C118.292 34.133 117.418 33.9747 116.646 33.658C115.873 33.3413 115.252 32.8727 114.784 32.252C114.328 31.6313 114.087 30.884 114.062 30.01H117.52C117.57 30.504 117.741 30.884 118.033 31.15C118.324 31.4033 118.704 31.53 119.173 31.53C119.654 31.53 120.034 31.4223 120.313 31.207C120.591 30.979 120.731 30.6687 120.731 30.276C120.731 29.9467 120.617 29.6743 120.389 29.459C120.173 29.2437 119.901 29.0663 119.572 28.927C119.255 28.7877 118.799 28.6293 118.204 28.452C117.342 28.186 116.639 27.92 116.095 27.654C115.55 27.388 115.081 26.9953 114.689 26.476C114.296 25.9567 114.1 25.279 114.1 24.443C114.1 23.2017 114.549 22.2327 115.449 21.536C116.348 20.8267 117.52 20.472 118.964 20.472C120.433 20.472 121.617 20.8267 122.517 21.536C123.416 22.2327 123.897 23.208 123.961 24.462H120.446C120.42 24.0313 120.262 23.6957 119.971 23.455C119.679 23.2017 119.306 23.075 118.85 23.075C118.457 23.075 118.14 23.1827 117.9 23.398C117.659 23.6007 117.539 23.8983 117.539 24.291C117.539 24.7217 117.741 25.0573 118.147 25.298C118.552 25.5387 119.185 25.7983 120.047 26.077C120.908 26.3683 121.605 26.647 122.137 26.913C122.681 27.179 123.15 27.5653 123.543 28.072C123.935 28.5787 124.132 29.231 124.132 30.029C124.132 30.789 123.935 31.4793 123.543 32.1C123.163 32.7207 122.605 33.2147 121.871 33.582C121.136 33.9493 120.268 34.133 119.268 34.133ZM132.439 34.133C131.185 34.133 130.032 33.8417 128.981 33.259C127.942 32.6763 127.113 31.8657 126.492 30.827C125.884 29.7757 125.58 28.5977 125.58 27.293C125.58 25.9883 125.884 24.8167 126.492 23.778C127.113 22.7393 127.942 21.9287 128.981 21.346C130.032 20.7633 131.185 20.472 132.439 20.472C133.693 20.472 134.839 20.7633 135.878 21.346C136.929 21.9287 137.753 22.7393 138.348 23.778C138.956 24.8167 139.26 25.9883 139.26 27.293C139.26 28.5977 138.956 29.7757 138.348 30.827C137.74 31.8657 136.917 32.6763 135.878 33.259C134.839 33.8417 133.693 34.133 132.439 34.133ZM132.439 31.169C133.503 31.169 134.352 30.8143 134.985 30.105C135.631 29.3957 135.954 28.4583 135.954 27.293C135.954 26.115 135.631 25.1777 134.985 24.481C134.352 23.7717 133.503 23.417 132.439 23.417C131.362 23.417 130.501 23.7653 129.855 24.462C129.222 25.1587 128.905 26.1023 128.905 27.293C128.905 28.471 129.222 29.4147 129.855 30.124C130.501 30.8207 131.362 31.169 132.439 31.169Z" fill="white"/>
<defs>
<linearGradient id="paint0_linear_338_30" x1="32" y1="19" x2="32" y2="73.5" gradientUnits="userSpaceOnUse">
<stop stop-color="#01B4E5"/>
<stop offset="1" stop-color="#16738D"/>
</linearGradient>
</defs>
</svg>
