<svg width="508" height="74" viewBox="0 0 508 74" fill="none" xmlns="http://www.w3.org/2000/svg">
<path d="M33.054 42.6351L29.4 18.9367C37.5982 16.3544 46.4018 16.3544 54.6 18.9367L50.946 42.6351C50.652 44.676 48.846 46.1753 46.746 46.1753H37.212C36.2063 46.1766 35.2335 45.8201 34.4705 45.1704C33.7075 44.5208 33.2049 43.6212 33.054 42.6351ZM84 58.6701C84 55.3798 82.026 52.4227 78.96 51.0483C76.9387 41.4182 71.214 32.9476 63 27.4331L55.608 47.5914C55.02 49.2574 53.424 50.3403 51.66 50.3403H32.34C30.576 50.3403 28.98 49.2574 28.392 47.5914L21 27.4331C12.7966 32.9393 7.07337 41.3927 5.04 51.0067C1.974 52.4227 0 55.3382 0 58.6701L27.09 66.3336C28.602 66.7501 30.156 67 31.71 67H52.206C53.76 67 55.314 66.7501 56.826 66.3336L84 58.6701Z" fill="#01B4E5"/>
<path d="M199.775 21.719C200.189 20.9983 200.802 20.4003 201.615 19.925C202.443 19.4343 203.401 19.189 204.49 19.189C205.609 19.189 206.621 19.4573 207.526 19.994C208.446 20.5307 209.167 21.2897 209.688 22.271C210.209 23.237 210.47 24.364 210.47 25.652C210.47 26.9247 210.209 28.0593 209.688 29.056C209.167 30.0527 208.446 30.827 207.526 31.379C206.621 31.931 205.609 32.207 204.49 32.207C203.417 32.207 202.466 31.9693 201.638 31.494C200.825 31.0033 200.204 30.3977 199.775 29.677V37.98H197.682V19.396H199.775V21.719ZM208.331 25.652C208.331 24.7013 208.139 23.8733 207.756 23.168C207.373 22.4627 206.851 21.926 206.192 21.558C205.548 21.19 204.835 21.006 204.053 21.006C203.286 21.006 202.573 21.1977 201.914 21.581C201.27 21.949 200.749 22.4933 200.35 23.214C199.967 23.9193 199.775 24.7397 199.775 25.675C199.775 26.6257 199.967 27.4613 200.35 28.182C200.749 28.8873 201.27 29.4317 201.914 29.815C202.573 30.183 203.286 30.367 204.053 30.367C204.835 30.367 205.548 30.183 206.192 29.815C206.851 29.4317 207.373 28.8873 207.756 28.182C208.139 27.4613 208.331 26.618 208.331 25.652ZM215.318 14.98V32H213.225V14.98H215.318ZM218.103 25.652C218.103 24.364 218.364 23.237 218.885 22.271C219.407 21.2897 220.12 20.5307 221.024 19.994C221.944 19.4573 222.964 19.189 224.083 19.189C225.187 19.189 226.146 19.4267 226.958 19.902C227.771 20.3773 228.377 20.9753 228.775 21.696V19.396H230.891V32H228.775V29.654C228.361 30.39 227.74 31.0033 226.912 31.494C226.1 31.9693 225.149 32.207 224.06 32.207C222.941 32.207 221.929 31.931 221.024 31.379C220.12 30.827 219.407 30.0527 218.885 29.056C218.364 28.0593 218.103 26.9247 218.103 25.652ZM228.775 25.675C228.775 24.7243 228.584 23.8963 228.2 23.191C227.817 22.4857 227.296 21.949 226.636 21.581C225.992 21.1977 225.279 21.006 224.497 21.006C223.715 21.006 223.002 21.19 222.358 21.558C221.714 21.926 221.201 22.4627 220.817 23.168C220.434 23.8733 220.242 24.7013 220.242 25.652C220.242 26.618 220.434 27.4613 220.817 28.182C221.201 28.8873 221.714 29.4317 222.358 29.815C223.002 30.183 223.715 30.367 224.497 30.367C225.279 30.367 225.992 30.183 226.636 29.815C227.296 29.4317 227.817 28.8873 228.2 28.182C228.584 27.4613 228.775 26.6257 228.775 25.675ZM240.569 19.166C242.103 19.166 243.345 19.6337 244.295 20.569C245.246 21.489 245.721 22.823 245.721 24.571V32H243.651V24.87C243.651 23.6127 243.337 22.6543 242.708 21.995C242.08 21.3203 241.221 20.983 240.132 20.983C239.028 20.983 238.147 21.328 237.487 22.018C236.843 22.708 236.521 23.7123 236.521 25.031V32H234.428V19.396H236.521V21.19C236.935 20.546 237.495 20.0477 238.2 19.695C238.921 19.3423 239.711 19.166 240.569 19.166ZM260.64 25.215C260.64 25.6137 260.617 26.0353 260.571 26.48H250.497C250.574 27.722 250.995 28.6957 251.762 29.401C252.544 30.091 253.487 30.436 254.591 30.436C255.496 30.436 256.247 30.229 256.845 29.815C257.458 29.3857 257.888 28.8183 258.133 28.113H260.387C260.05 29.3243 259.375 30.3133 258.363 31.08C257.351 31.8313 256.094 32.207 254.591 32.207C253.395 32.207 252.322 31.9387 251.371 31.402C250.436 30.8653 249.7 30.1063 249.163 29.125C248.626 28.1283 248.358 26.9783 248.358 25.675C248.358 24.3717 248.619 23.2293 249.14 22.248C249.661 21.2667 250.39 20.5153 251.325 19.994C252.276 19.4573 253.364 19.189 254.591 19.189C255.787 19.189 256.845 19.4497 257.765 19.971C258.685 20.4923 259.39 21.213 259.881 22.133C260.387 23.0377 260.64 24.065 260.64 25.215ZM258.478 24.778C258.478 23.9807 258.302 23.2983 257.949 22.731C257.596 22.1483 257.113 21.7113 256.5 21.42C255.902 21.1133 255.235 20.96 254.499 20.96C253.441 20.96 252.536 21.2973 251.785 21.972C251.049 22.6467 250.627 23.582 250.52 24.778H258.478ZM264.53 17.349C264.131 17.349 263.794 17.211 263.518 16.935C263.257 16.659 263.127 16.3217 263.127 15.923C263.127 15.5243 263.257 15.187 263.518 14.911C263.794 14.635 264.131 14.497 264.53 14.497C264.929 14.497 265.258 14.635 265.519 14.911C265.795 15.187 265.933 15.5243 265.933 15.923C265.933 16.3217 265.795 16.659 265.519 16.935C265.258 17.211 264.929 17.349 264.53 17.349ZM265.565 34.737C265.565 35.8563 265.281 36.6767 264.714 37.198C264.147 37.7193 263.319 37.98 262.23 37.98H261.011V36.209H261.885C262.468 36.209 262.874 36.094 263.104 35.864C263.349 35.634 263.472 35.243 263.472 34.691V19.396H265.565V34.737ZM268.326 25.652C268.326 24.364 268.587 23.237 269.108 22.271C269.629 21.2897 270.342 20.5307 271.247 19.994C272.167 19.4573 273.187 19.189 274.306 19.189C275.41 19.189 276.368 19.4267 277.181 19.902C277.994 20.3773 278.599 20.9753 278.998 21.696V19.396H281.114V32H278.998V29.654C278.584 30.39 277.963 31.0033 277.135 31.494C276.322 31.9693 275.372 32.207 274.283 32.207C273.164 32.207 272.152 31.931 271.247 31.379C270.342 30.827 269.629 30.0527 269.108 29.056C268.587 28.0593 268.326 26.9247 268.326 25.652ZM278.998 25.675C278.998 24.7243 278.806 23.8963 278.423 23.191C278.04 22.4857 277.518 21.949 276.859 21.581C276.215 21.1977 275.502 21.006 274.72 21.006C273.938 21.006 273.225 21.19 272.581 21.558C271.937 21.926 271.423 22.4627 271.04 23.168C270.657 23.8733 270.465 24.7013 270.465 25.652C270.465 26.618 270.657 27.4613 271.04 28.182C271.423 28.8873 271.937 29.4317 272.581 29.815C273.225 30.183 273.938 30.367 274.72 30.367C275.502 30.367 276.215 30.183 276.859 29.815C277.518 29.4317 278.04 28.8873 278.423 28.182C278.806 27.4613 278.998 26.6257 278.998 25.675ZM299.808 19.166C300.789 19.166 301.663 19.373 302.43 19.787C303.197 20.1857 303.802 20.7913 304.247 21.604C304.692 22.4167 304.914 23.4057 304.914 24.571V32H302.844V24.87C302.844 23.6127 302.53 22.6543 301.901 21.995C301.288 21.3203 300.452 20.983 299.394 20.983C298.305 20.983 297.439 21.3357 296.795 22.041C296.151 22.731 295.829 23.7353 295.829 25.054V32H293.759V24.87C293.759 23.6127 293.445 22.6543 292.816 21.995C292.203 21.3203 291.367 20.983 290.309 20.983C289.22 20.983 288.354 21.3357 287.71 22.041C287.066 22.731 286.744 23.7353 286.744 25.054V32H284.651V19.396H286.744V21.213C287.158 20.5537 287.71 20.0477 288.4 19.695C289.105 19.3423 289.88 19.166 290.723 19.166C291.781 19.166 292.716 19.4037 293.529 19.879C294.342 20.3543 294.947 21.052 295.346 21.972C295.699 21.0827 296.281 20.3927 297.094 19.902C297.907 19.4113 298.811 19.166 299.808 19.166ZM319.847 25.215C319.847 25.6137 319.824 26.0353 319.778 26.48H309.704C309.781 27.722 310.203 28.6957 310.969 29.401C311.751 30.091 312.694 30.436 313.798 30.436C314.703 30.436 315.454 30.229 316.052 29.815C316.666 29.3857 317.095 28.8183 317.34 28.113H319.594C319.257 29.3243 318.582 30.3133 317.57 31.08C316.558 31.8313 315.301 32.207 313.798 32.207C312.602 32.207 311.529 31.9387 310.578 31.402C309.643 30.8653 308.907 30.1063 308.37 29.125C307.834 28.1283 307.565 26.9783 307.565 25.675C307.565 24.3717 307.826 23.2293 308.347 22.248C308.869 21.2667 309.597 20.5153 310.532 19.994C311.483 19.4573 312.572 19.189 313.798 19.189C314.994 19.189 316.052 19.4497 316.972 19.971C317.892 20.4923 318.598 21.213 319.088 22.133C319.594 23.0377 319.847 24.065 319.847 25.215ZM317.685 24.778C317.685 23.9807 317.509 23.2983 317.156 22.731C316.804 22.1483 316.321 21.7113 315.707 21.42C315.109 21.1133 314.442 20.96 313.706 20.96C312.648 20.96 311.744 21.2973 310.992 21.972C310.256 22.6467 309.835 23.582 309.727 24.778H317.685ZM328.751 19.166C330.284 19.166 331.526 19.6337 332.477 20.569C333.428 21.489 333.903 22.823 333.903 24.571V32H331.833V24.87C331.833 23.6127 331.519 22.6543 330.89 21.995C330.261 21.3203 329.403 20.983 328.314 20.983C327.21 20.983 326.328 21.328 325.669 22.018C325.025 22.708 324.703 23.7123 324.703 25.031V32H322.61V19.396H324.703V21.19C325.117 20.546 325.677 20.0477 326.382 19.695C327.103 19.3423 327.892 19.166 328.751 19.166ZM339.875 21.121V28.55C339.875 29.1633 340.005 29.6003 340.266 29.861C340.526 30.1063 340.979 30.229 341.623 30.229H343.164V32H341.278C340.112 32 339.238 31.7317 338.656 31.195C338.073 30.6583 337.782 29.7767 337.782 28.55V21.121H336.149V19.396H337.782V16.222H339.875V19.396H343.164V21.121H339.875ZM351.197 32.207C350.016 32.207 348.943 31.9387 347.977 31.402C347.026 30.8653 346.275 30.1063 345.723 29.125C345.186 28.1283 344.918 26.9783 344.918 25.675C344.918 24.387 345.194 23.2523 345.746 22.271C346.313 21.2743 347.08 20.5153 348.046 19.994C349.012 19.4573 350.093 19.189 351.289 19.189C352.485 19.189 353.566 19.4573 354.532 19.994C355.498 20.5153 356.257 21.2667 356.809 22.248C357.376 23.2293 357.66 24.3717 357.66 25.675C357.66 26.9783 357.368 28.1283 356.786 29.125C356.218 30.1063 355.444 30.8653 354.463 31.402C353.481 31.9387 352.393 32.207 351.197 32.207ZM351.197 30.367C351.948 30.367 352.653 30.1907 353.313 29.838C353.972 29.4853 354.501 28.9563 354.9 28.251C355.314 27.5457 355.521 26.687 355.521 25.675C355.521 24.663 355.321 23.8043 354.923 23.099C354.524 22.3937 354.003 21.8723 353.359 21.535C352.715 21.1823 352.017 21.006 351.266 21.006C350.499 21.006 349.794 21.1823 349.15 21.535C348.521 21.8723 348.015 22.3937 347.632 23.099C347.248 23.8043 347.057 24.663 347.057 25.675C347.057 26.7023 347.241 27.5687 347.609 28.274C347.992 28.9793 348.498 29.5083 349.127 29.861C349.755 30.1983 350.445 30.367 351.197 30.367ZM378.043 25.215C378.043 25.6137 378.02 26.0353 377.974 26.48H367.9C367.977 27.722 368.399 28.6957 369.165 29.401C369.947 30.091 370.89 30.436 371.994 30.436C372.899 30.436 373.65 30.229 374.248 29.815C374.862 29.3857 375.291 28.8183 375.536 28.113H377.79C377.453 29.3243 376.778 30.3133 375.766 31.08C374.754 31.8313 373.497 32.207 371.994 32.207C370.798 32.207 369.725 31.9387 368.774 31.402C367.839 30.8653 367.103 30.1063 366.566 29.125C366.03 28.1283 365.761 26.9783 365.761 25.675C365.761 24.3717 366.022 23.2293 366.543 22.248C367.065 21.2667 367.793 20.5153 368.728 19.994C369.679 19.4573 370.768 19.189 371.994 19.189C373.19 19.189 374.248 19.4497 375.168 19.971C376.088 20.4923 376.794 21.213 377.284 22.133C377.79 23.0377 378.043 24.065 378.043 25.215ZM375.881 24.778C375.881 23.9807 375.705 23.2983 375.352 22.731C375 22.1483 374.517 21.7113 373.903 21.42C373.305 21.1133 372.638 20.96 371.902 20.96C370.844 20.96 369.94 21.2973 369.188 21.972C368.452 22.6467 368.031 23.582 367.923 24.778H375.881ZM392.136 19.189C393.225 19.189 394.175 19.4267 394.988 19.902C395.816 20.3773 396.429 20.9753 396.828 21.696V19.396H398.944V32.276C398.944 33.426 398.699 34.4457 398.208 35.335C397.717 36.2397 397.012 36.945 396.092 37.451C395.187 37.957 394.129 38.21 392.918 38.21C391.262 38.21 389.882 37.819 388.778 37.037C387.674 36.255 387.022 35.1893 386.823 33.84H388.893C389.123 34.6067 389.598 35.22 390.319 35.68C391.04 36.1553 391.906 36.393 392.918 36.393C394.068 36.393 395.003 36.0327 395.724 35.312C396.46 34.5913 396.828 33.5793 396.828 32.276V29.631C396.414 30.367 395.801 30.9803 394.988 31.471C394.175 31.9617 393.225 32.207 392.136 32.207C391.017 32.207 389.997 31.931 389.077 31.379C388.172 30.827 387.459 30.0527 386.938 29.056C386.417 28.0593 386.156 26.9247 386.156 25.652C386.156 24.364 386.417 23.237 386.938 22.271C387.459 21.2897 388.172 20.5307 389.077 19.994C389.997 19.4573 391.017 19.189 392.136 19.189ZM396.828 25.675C396.828 24.7243 396.636 23.8963 396.253 23.191C395.87 22.4857 395.348 21.949 394.689 21.581C394.045 21.1977 393.332 21.006 392.55 21.006C391.768 21.006 391.055 21.19 390.411 21.558C389.767 21.926 389.253 22.4627 388.87 23.168C388.487 23.8733 388.295 24.7013 388.295 25.652C388.295 26.618 388.487 27.4613 388.87 28.182C389.253 28.8873 389.767 29.4317 390.411 29.815C391.055 30.183 391.768 30.367 392.55 30.367C393.332 30.367 394.045 30.183 394.689 29.815C395.348 29.4317 395.87 28.8873 396.253 28.182C396.636 27.4613 396.828 26.6257 396.828 25.675ZM413.981 25.215C413.981 25.6137 413.958 26.0353 413.912 26.48H403.838C403.915 27.722 404.336 28.6957 405.103 29.401C405.885 30.091 406.828 30.436 407.932 30.436C408.837 30.436 409.588 30.229 410.186 29.815C410.799 29.3857 411.229 28.8183 411.474 28.113H413.728C413.391 29.3243 412.716 30.3133 411.704 31.08C410.692 31.8313 409.435 32.207 407.932 32.207C406.736 32.207 405.663 31.9387 404.712 31.402C403.777 30.8653 403.041 30.1063 402.504 29.125C401.967 28.1283 401.699 26.9783 401.699 25.675C401.699 24.3717 401.96 23.2293 402.481 22.248C403.002 21.2667 403.731 20.5153 404.666 19.994C405.617 19.4573 406.705 19.189 407.932 19.189C409.128 19.189 410.186 19.4497 411.106 19.971C412.026 20.4923 412.731 21.213 413.222 22.133C413.728 23.0377 413.981 24.065 413.981 25.215ZM411.819 24.778C411.819 23.9807 411.643 23.2983 411.29 22.731C410.937 22.1483 410.454 21.7113 409.841 21.42C409.243 21.1133 408.576 20.96 407.84 20.96C406.782 20.96 405.877 21.2973 405.126 21.972C404.39 22.6467 403.968 23.582 403.861 24.778H411.819ZM421.206 32.207C420.24 32.207 419.373 32.046 418.607 31.724C417.84 31.3867 417.234 30.9267 416.79 30.344C416.345 29.746 416.1 29.0637 416.054 28.297H418.216C418.277 28.9257 418.568 29.4393 419.09 29.838C419.626 30.2367 420.324 30.436 421.183 30.436C421.98 30.436 422.609 30.2597 423.069 29.907C423.529 29.5543 423.759 29.1097 423.759 28.573C423.759 28.021 423.513 27.6147 423.023 27.354C422.532 27.078 421.773 26.8097 420.746 26.549C419.81 26.3037 419.044 26.0583 418.446 25.813C417.863 25.5523 417.357 25.1767 416.928 24.686C416.514 24.18 416.307 23.5207 416.307 22.708C416.307 22.064 416.498 21.4737 416.882 20.937C417.265 20.4003 417.809 19.9787 418.515 19.672C419.22 19.35 420.025 19.189 420.93 19.189C422.325 19.189 423.452 19.5417 424.311 20.247C425.169 20.9523 425.629 21.9183 425.691 23.145H423.598C423.552 22.4857 423.283 21.9567 422.793 21.558C422.317 21.1593 421.673 20.96 420.861 20.96C420.109 20.96 419.511 21.121 419.067 21.443C418.622 21.765 418.4 22.1867 418.4 22.708C418.4 23.122 418.53 23.467 418.791 23.743C419.067 24.0037 419.404 24.2183 419.803 24.387C420.217 24.5403 420.784 24.7167 421.505 24.916C422.409 25.1613 423.145 25.4067 423.713 25.652C424.28 25.882 424.763 26.2347 425.162 26.71C425.576 27.1853 425.79 27.8063 425.806 28.573C425.806 29.263 425.614 29.884 425.231 30.436C424.847 30.988 424.303 31.425 423.598 31.747C422.908 32.0537 422.11 32.207 421.206 32.207ZM431.313 21.121V28.55C431.313 29.1633 431.444 29.6003 431.704 29.861C431.965 30.1063 432.417 30.229 433.061 30.229H434.602V32H432.716C431.551 32 430.677 31.7317 430.094 31.195C429.512 30.6583 429.22 29.7767 429.22 28.55V21.121H427.587V19.396H429.22V16.222H431.313V19.396H434.602V21.121H431.313ZM436.356 25.652C436.356 24.364 436.617 23.237 437.138 22.271C437.66 21.2897 438.373 20.5307 439.277 19.994C440.197 19.4573 441.217 19.189 442.336 19.189C443.44 19.189 444.399 19.4267 445.211 19.902C446.024 20.3773 446.63 20.9753 447.028 21.696V19.396H449.144V32H447.028V29.654C446.614 30.39 445.993 31.0033 445.165 31.494C444.353 31.9693 443.402 32.207 442.313 32.207C441.194 32.207 440.182 31.931 439.277 31.379C438.373 30.827 437.66 30.0527 437.138 29.056C436.617 28.0593 436.356 26.9247 436.356 25.652ZM447.028 25.675C447.028 24.7243 446.837 23.8963 446.453 23.191C446.07 22.4857 445.549 21.949 444.889 21.581C444.245 21.1977 443.532 21.006 442.75 21.006C441.968 21.006 441.255 21.19 440.611 21.558C439.967 21.926 439.454 22.4627 439.07 23.168C438.687 23.8733 438.495 24.7013 438.495 25.652C438.495 26.618 438.687 27.4613 439.07 28.182C439.454 28.8873 439.967 29.4317 440.611 29.815C441.255 30.183 441.968 30.367 442.75 30.367C443.532 30.367 444.245 30.183 444.889 29.815C445.549 29.4317 446.07 28.8873 446.453 28.182C446.837 27.4613 447.028 26.6257 447.028 25.675ZM439.783 18.039C439.891 17.257 440.144 16.659 440.542 16.245C440.956 15.831 441.47 15.624 442.083 15.624C442.375 15.624 442.62 15.6777 442.819 15.785C443.034 15.877 443.287 16.015 443.578 16.199C443.793 16.3523 443.985 16.475 444.153 16.567C444.322 16.6437 444.506 16.682 444.705 16.682C444.966 16.682 445.188 16.5977 445.372 16.429C445.556 16.2603 445.671 16.015 445.717 15.693H446.913C446.821 16.4597 446.568 17.05 446.154 17.464C445.74 17.878 445.227 18.085 444.613 18.085C444.322 18.085 444.061 18.039 443.831 17.947C443.617 17.8397 443.371 17.6863 443.095 17.487C442.85 17.3337 442.651 17.2187 442.497 17.142C442.359 17.0653 442.191 17.027 441.991 17.027C441.731 17.027 441.508 17.1113 441.324 17.28C441.156 17.4487 441.048 17.7017 441.002 18.039H439.783ZM458.178 32.207C456.997 32.207 455.924 31.9387 454.958 31.402C454.007 30.8653 453.256 30.1063 452.704 29.125C452.167 28.1283 451.899 26.9783 451.899 25.675C451.899 24.387 452.175 23.2523 452.727 22.271C453.294 21.2743 454.061 20.5153 455.027 19.994C455.993 19.4573 457.074 19.189 458.27 19.189C459.466 19.189 460.547 19.4573 461.513 19.994C462.479 20.5153 463.238 21.2667 463.79 22.248C464.357 23.2293 464.641 24.3717 464.641 25.675C464.641 26.9783 464.35 28.1283 463.767 29.125C463.2 30.1063 462.425 30.8653 461.444 31.402C460.463 31.9387 459.374 32.207 458.178 32.207ZM458.178 30.367C458.929 30.367 459.635 30.1907 460.294 29.838C460.953 29.4853 461.482 28.9563 461.881 28.251C462.295 27.5457 462.502 26.687 462.502 25.675C462.502 24.663 462.303 23.8043 461.904 23.099C461.505 22.3937 460.984 21.8723 460.34 21.535C459.696 21.1823 458.998 21.006 458.247 21.006C457.48 21.006 456.775 21.1823 456.131 21.535C455.502 21.8723 454.996 22.3937 454.613 23.099C454.23 23.8043 454.038 24.663 454.038 25.675C454.038 26.7023 454.222 27.5687 454.59 28.274C454.973 28.9793 455.479 29.5083 456.108 29.861C456.737 30.1983 457.427 30.367 458.178 30.367ZM472.743 25.652C472.743 24.364 473.004 23.237 473.525 22.271C474.046 21.2897 474.759 20.5307 475.664 19.994C476.584 19.4573 477.611 19.189 478.746 19.189C479.727 19.189 480.64 19.419 481.483 19.879C482.326 20.3237 482.97 20.914 483.415 21.65V14.98H485.531V32H483.415V29.631C483.001 30.3823 482.388 31.0033 481.575 31.494C480.762 31.9693 479.812 32.207 478.723 32.207C477.604 32.207 476.584 31.931 475.664 31.379C474.759 30.827 474.046 30.0527 473.525 29.056C473.004 28.0593 472.743 26.9247 472.743 25.652ZM483.415 25.675C483.415 24.7243 483.223 23.8963 482.84 23.191C482.457 22.4857 481.935 21.949 481.276 21.581C480.632 21.1977 479.919 21.006 479.137 21.006C478.355 21.006 477.642 21.19 476.998 21.558C476.354 21.926 475.84 22.4627 475.457 23.168C475.074 23.8733 474.882 24.7013 474.882 25.652C474.882 26.618 475.074 27.4613 475.457 28.182C475.84 28.8873 476.354 29.4317 476.998 29.815C477.642 30.183 478.355 30.367 479.137 30.367C479.919 30.367 480.632 30.183 481.276 29.815C481.935 29.4317 482.457 28.8873 482.84 28.182C483.223 27.4613 483.415 26.6257 483.415 25.675ZM500.568 25.215C500.568 25.6137 500.545 26.0353 500.499 26.48H490.425C490.502 27.722 490.923 28.6957 491.69 29.401C492.472 30.091 493.415 30.436 494.519 30.436C495.424 30.436 496.175 30.229 496.773 29.815C497.386 29.3857 497.816 28.8183 498.061 28.113H500.315C499.978 29.3243 499.303 30.3133 498.291 31.08C497.279 31.8313 496.022 32.207 494.519 32.207C493.323 32.207 492.25 31.9387 491.299 31.402C490.364 30.8653 489.628 30.1063 489.091 29.125C488.554 28.1283 488.286 26.9783 488.286 25.675C488.286 24.3717 488.547 23.2293 489.068 22.248C489.589 21.2667 490.318 20.5153 491.253 19.994C492.204 19.4573 493.292 19.189 494.519 19.189C495.715 19.189 496.773 19.4497 497.693 19.971C498.613 20.4923 499.318 21.213 499.809 22.133C500.315 23.0377 500.568 24.065 500.568 25.215ZM498.406 24.778C498.406 23.9807 498.23 23.2983 497.877 22.731C497.524 22.1483 497.041 21.7113 496.428 21.42C495.83 21.1133 495.163 20.96 494.427 20.96C493.369 20.96 492.464 21.2973 491.713 21.972C490.977 22.6467 490.555 23.582 490.448 24.778H498.406Z" fill="white"/>
<path d="M119.328 53.576C119.328 54.552 119.104 55.448 118.656 56.264C118.208 57.064 117.52 57.712 116.592 58.208C115.664 58.704 114.512 58.952 113.136 58.952H110.592V65H106.488V48.152H113.136C114.48 48.152 115.616 48.384 116.544 48.848C117.472 49.312 118.168 49.952 118.632 50.768C119.096 51.584 119.328 52.52 119.328 53.576ZM112.824 55.688C113.608 55.688 114.192 55.504 114.576 55.136C114.96 54.768 115.152 54.248 115.152 53.576C115.152 52.904 114.96 52.384 114.576 52.016C114.192 51.648 113.608 51.464 112.824 51.464H110.592V55.688H112.824ZM130.057 65L126.553 58.64H125.569V65H121.465V48.152H128.353C129.681 48.152 130.809 48.384 131.737 48.848C132.681 49.312 133.385 49.952 133.849 50.768C134.313 51.568 134.545 52.464 134.545 53.456C134.545 54.576 134.225 55.576 133.585 56.456C132.961 57.336 132.033 57.96 130.801 58.328L134.689 65H130.057ZM125.569 55.736H128.113C128.865 55.736 129.425 55.552 129.793 55.184C130.177 54.816 130.369 54.296 130.369 53.624C130.369 52.984 130.177 52.48 129.793 52.112C129.425 51.744 128.865 51.56 128.113 51.56H125.569V55.736ZM145.089 65.168C143.505 65.168 142.049 64.8 140.721 64.064C139.409 63.328 138.361 62.304 137.577 60.992C136.809 59.664 136.425 58.176 136.425 56.528C136.425 54.88 136.809 53.4 137.577 52.088C138.361 50.776 139.409 49.752 140.721 49.016C142.049 48.28 143.505 47.912 145.089 47.912C146.673 47.912 148.121 48.28 149.433 49.016C150.761 49.752 151.801 50.776 152.553 52.088C153.321 53.4 153.705 54.88 153.705 56.528C153.705 58.176 153.321 59.664 152.553 60.992C151.785 62.304 150.745 63.328 149.433 64.064C148.121 64.8 146.673 65.168 145.089 65.168ZM145.089 61.424C146.433 61.424 147.505 60.976 148.305 60.08C149.121 59.184 149.529 58 149.529 56.528C149.529 55.04 149.121 53.856 148.305 52.976C147.505 52.08 146.433 51.632 145.089 51.632C143.729 51.632 142.641 52.072 141.825 52.952C141.025 53.832 140.625 55.024 140.625 56.528C140.625 58.016 141.025 59.208 141.825 60.104C142.641 60.984 143.729 61.424 145.089 61.424ZM166.548 48.152V59.624C166.548 61.4 166.044 62.768 165.036 63.728C164.044 64.688 162.7 65.168 161.004 65.168C159.228 65.168 157.804 64.664 156.732 63.656C155.66 62.648 155.124 61.216 155.124 59.36H159.204C159.204 60.064 159.348 60.6 159.636 60.968C159.924 61.32 160.34 61.496 160.884 61.496C161.38 61.496 161.764 61.336 162.036 61.016C162.308 60.696 162.444 60.232 162.444 59.624V48.152H166.548ZM173.967 51.44V54.848H179.463V58.016H173.967V61.712H180.183V65H169.863V48.152H180.183V51.44H173.967ZM194.967 48.152V51.44H190.503V65H186.399V51.44H181.935V48.152H194.967ZM204.995 65.168C203.411 65.168 201.955 64.8 200.627 64.064C199.315 63.328 198.267 62.304 197.483 60.992C196.715 59.664 196.331 58.176 196.331 56.528C196.331 54.88 196.715 53.4 197.483 52.088C198.267 50.776 199.315 49.752 200.627 49.016C201.955 48.28 203.411 47.912 204.995 47.912C206.579 47.912 208.027 48.28 209.339 49.016C210.667 49.752 211.707 50.776 212.459 52.088C213.227 53.4 213.611 54.88 213.611 56.528C213.611 58.176 213.227 59.664 212.459 60.992C211.691 62.304 210.651 63.328 209.339 64.064C208.027 64.8 206.579 65.168 204.995 65.168ZM204.995 61.424C206.339 61.424 207.411 60.976 208.211 60.08C209.027 59.184 209.435 58 209.435 56.528C209.435 55.04 209.027 53.856 208.211 52.976C207.411 52.08 206.339 51.632 204.995 51.632C203.635 51.632 202.547 52.072 201.731 52.952C200.931 53.832 200.531 55.024 200.531 56.528C200.531 58.016 200.931 59.208 201.731 60.104C202.547 60.984 203.635 61.424 204.995 61.424ZM221.99 65.168C220.758 65.168 219.654 64.968 218.678 64.568C217.702 64.168 216.918 63.576 216.326 62.792C215.75 62.008 215.446 61.064 215.414 59.96H219.782C219.846 60.584 220.062 61.064 220.43 61.4C220.798 61.72 221.278 61.88 221.87 61.88C222.478 61.88 222.958 61.744 223.31 61.472C223.662 61.184 223.838 60.792 223.838 60.296C223.838 59.88 223.694 59.536 223.406 59.264C223.134 58.992 222.79 58.768 222.374 58.592C221.974 58.416 221.398 58.216 220.646 57.992C219.558 57.656 218.67 57.32 217.982 56.984C217.294 56.648 216.702 56.152 216.206 55.496C215.71 54.84 215.462 53.984 215.462 52.928C215.462 51.36 216.03 50.136 217.166 49.256C218.302 48.36 219.782 47.912 221.606 47.912C223.462 47.912 224.958 48.36 226.094 49.256C227.23 50.136 227.838 51.368 227.918 52.952H223.478C223.446 52.408 223.246 51.984 222.878 51.68C222.51 51.36 222.038 51.2 221.462 51.2C220.966 51.2 220.566 51.336 220.262 51.608C219.958 51.864 219.806 52.24 219.806 52.736C219.806 53.28 220.062 53.704 220.574 54.008C221.086 54.312 221.886 54.64 222.974 54.992C224.062 55.36 224.942 55.712 225.614 56.048C226.302 56.384 226.894 56.872 227.39 57.512C227.886 58.152 228.134 58.976 228.134 59.984C228.134 60.944 227.886 61.816 227.39 62.6C226.91 63.384 226.206 64.008 225.278 64.472C224.35 64.936 223.254 65.168 221.99 65.168ZM254.826 48.152V65H250.722V54.896L246.954 65H243.642L239.85 54.872V65H235.746V48.152H240.594L245.322 59.816L250.002 48.152H254.826ZM261.809 48.152V58.232C261.809 59.24 262.057 60.016 262.553 60.56C263.049 61.104 263.777 61.376 264.737 61.376C265.697 61.376 266.433 61.104 266.945 60.56C267.457 60.016 267.713 59.24 267.713 58.232V48.152H271.817V58.208C271.817 59.712 271.497 60.984 270.857 62.024C270.217 63.064 269.353 63.848 268.265 64.376C267.193 64.904 265.993 65.168 264.665 65.168C263.337 65.168 262.145 64.912 261.089 64.4C260.049 63.872 259.225 63.088 258.617 62.048C258.009 60.992 257.705 59.712 257.705 58.208V48.152H261.809ZM278.803 61.832H284.179V65H274.699V48.152H278.803V61.832ZM298.256 48.152V51.44H293.792V65H289.688V51.44H285.224V48.152H298.256ZM304.42 48.152V65H300.316V48.152H304.42ZM313.706 48.152C315.482 48.152 317.034 48.504 318.362 49.208C319.69 49.912 320.714 50.904 321.434 52.184C322.17 53.448 322.538 54.912 322.538 56.576C322.538 58.224 322.17 59.688 321.434 60.968C320.714 62.248 319.682 63.24 318.338 63.944C317.01 64.648 315.466 65 313.706 65H307.394V48.152H313.706ZM313.442 61.448C314.994 61.448 316.202 61.024 317.066 60.176C317.93 59.328 318.362 58.128 318.362 56.576C318.362 55.024 317.93 53.816 317.066 52.952C316.202 52.088 314.994 51.656 313.442 51.656H311.498V61.448H313.442ZM328.936 48.152V65H324.832V48.152H328.936ZM338.006 65.168C336.774 65.168 335.67 64.968 334.694 64.568C333.718 64.168 332.934 63.576 332.342 62.792C331.766 62.008 331.462 61.064 331.43 59.96H335.798C335.862 60.584 336.078 61.064 336.446 61.4C336.814 61.72 337.294 61.88 337.886 61.88C338.494 61.88 338.974 61.744 339.326 61.472C339.678 61.184 339.854 60.792 339.854 60.296C339.854 59.88 339.71 59.536 339.422 59.264C339.15 58.992 338.806 58.768 338.39 58.592C337.99 58.416 337.414 58.216 336.662 57.992C335.574 57.656 334.686 57.32 333.998 56.984C333.31 56.648 332.718 56.152 332.222 55.496C331.726 54.84 331.478 53.984 331.478 52.928C331.478 51.36 332.046 50.136 333.182 49.256C334.318 48.36 335.798 47.912 337.622 47.912C339.478 47.912 340.974 48.36 342.11 49.256C343.246 50.136 343.854 51.368 343.934 52.952H339.494C339.462 52.408 339.262 51.984 338.894 51.68C338.526 51.36 338.054 51.2 337.478 51.2C336.982 51.2 336.582 51.336 336.278 51.608C335.974 51.864 335.822 52.24 335.822 52.736C335.822 53.28 336.078 53.704 336.59 54.008C337.102 54.312 337.902 54.64 338.99 54.992C340.078 55.36 340.958 55.712 341.63 56.048C342.318 56.384 342.91 56.872 343.406 57.512C343.902 58.152 344.15 58.976 344.15 59.984C344.15 60.944 343.902 61.816 343.406 62.6C342.926 63.384 342.222 64.008 341.294 64.472C340.366 64.936 339.27 65.168 338.006 65.168ZM345.979 56.552C345.979 54.888 346.34 53.408 347.06 52.112C347.78 50.8 348.78 49.784 350.06 49.064C351.356 48.328 352.82 47.96 354.452 47.96C356.452 47.96 358.164 48.488 359.588 49.544C361.012 50.6 361.964 52.04 362.444 53.864H357.932C357.596 53.16 357.116 52.624 356.492 52.256C355.884 51.888 355.188 51.704 354.404 51.704C353.14 51.704 352.116 52.144 351.332 53.024C350.548 53.904 350.156 55.08 350.156 56.552C350.156 58.024 350.548 59.2 351.332 60.08C352.116 60.96 353.14 61.4 354.404 61.4C355.188 61.4 355.884 61.216 356.492 60.848C357.116 60.48 357.596 59.944 357.932 59.24H362.444C361.964 61.064 361.012 62.504 359.588 63.56C358.164 64.6 356.452 65.12 354.452 65.12C352.82 65.12 351.356 64.76 350.06 64.04C348.78 63.304 347.78 62.288 347.06 60.992C346.34 59.696 345.979 58.216 345.979 56.552ZM369.061 48.152V65H364.957V48.152H369.061ZM384.875 53.576C384.875 54.552 384.651 55.448 384.203 56.264C383.755 57.064 383.067 57.712 382.139 58.208C381.211 58.704 380.059 58.952 378.683 58.952H376.139V65H372.035V48.152H378.683C380.027 48.152 381.163 48.384 382.091 48.848C383.019 49.312 383.715 49.952 384.179 50.768C384.643 51.584 384.875 52.52 384.875 53.576ZM378.371 55.688C379.155 55.688 379.739 55.504 380.123 55.136C380.507 54.768 380.699 54.248 380.699 53.576C380.699 52.904 380.507 52.384 380.123 52.016C379.739 51.648 379.155 51.464 378.371 51.464H376.139V55.688H378.371ZM391.115 61.832H396.491V65H387.011V48.152H391.115V61.832ZM402.553 48.152V65H398.449V48.152H402.553ZM416.015 62.024H409.727L408.719 65H404.423L410.519 48.152H415.271L421.367 65H417.023L416.015 62.024ZM414.959 58.856L412.871 52.688L410.807 58.856H414.959ZM438.294 65H434.19L427.326 54.608V65H423.222V48.152H427.326L434.19 58.592V48.152H438.294V65ZM451.757 62.024H445.469L444.461 65H440.165L446.261 48.152H451.013L457.109 65H452.765L451.757 62.024ZM450.701 58.856L448.613 52.688L446.549 58.856H450.701ZM467.557 65L464.053 58.64H463.069V65H458.965V48.152H465.853C467.181 48.152 468.309 48.384 469.237 48.848C470.181 49.312 470.885 49.952 471.349 50.768C471.813 51.568 472.045 52.464 472.045 53.456C472.045 54.576 471.725 55.576 471.085 56.456C470.461 57.336 469.533 57.96 468.301 58.328L472.189 65H467.557ZM463.069 55.736H465.613C466.365 55.736 466.925 55.552 467.293 55.184C467.677 54.816 467.869 54.296 467.869 53.624C467.869 52.984 467.677 52.48 467.293 52.112C466.925 51.744 466.365 51.56 465.613 51.56H463.069V55.736ZM478.725 51.44V54.848H484.221V58.016H478.725V61.712H484.941V65H474.621V48.152H484.941V51.44H478.725ZM493.701 65.168C492.469 65.168 491.365 64.968 490.389 64.568C489.413 64.168 488.629 63.576 488.037 62.792C487.461 62.008 487.157 61.064 487.125 59.96H491.493C491.557 60.584 491.773 61.064 492.141 61.4C492.509 61.72 492.989 61.88 493.581 61.88C494.189 61.88 494.669 61.744 495.021 61.472C495.373 61.184 495.549 60.792 495.549 60.296C495.549 59.88 495.405 59.536 495.117 59.264C494.845 58.992 494.501 58.768 494.085 58.592C493.685 58.416 493.109 58.216 492.357 57.992C491.269 57.656 490.381 57.32 489.693 56.984C489.005 56.648 488.413 56.152 487.917 55.496C487.421 54.84 487.173 53.984 487.173 52.928C487.173 51.36 487.741 50.136 488.877 49.256C490.013 48.36 491.493 47.912 493.317 47.912C495.173 47.912 496.669 48.36 497.805 49.256C498.941 50.136 499.549 51.368 499.629 52.952H495.189C495.157 52.408 494.957 51.984 494.589 51.68C494.221 51.36 493.749 51.2 493.173 51.2C492.677 51.2 492.277 51.336 491.973 51.608C491.669 51.864 491.517 52.24 491.517 52.736C491.517 53.28 491.773 53.704 492.285 54.008C492.797 54.312 493.597 54.64 494.685 54.992C495.773 55.36 496.653 55.712 497.325 56.048C498.013 56.384 498.605 56.872 499.101 57.512C499.597 58.152 499.845 58.976 499.845 59.984C499.845 60.944 499.597 61.816 499.101 62.6C498.621 63.384 497.917 64.008 496.989 64.472C496.061 64.936 494.965 65.168 493.701 65.168Z" fill="#01B4E5"/>
<path d="M105.759 23.904C105.759 22.3093 106.104 20.891 106.794 19.649C107.484 18.3917 108.442 17.418 109.669 16.728C110.911 16.0227 112.314 15.67 113.878 15.67C115.795 15.67 117.435 16.176 118.8 17.188C120.165 18.2 121.077 19.58 121.537 21.328H117.213C116.891 20.6533 116.431 20.1397 115.833 19.787C115.25 19.4343 114.583 19.258 113.832 19.258C112.621 19.258 111.639 19.6797 110.888 20.523C110.137 21.3663 109.761 22.4933 109.761 23.904C109.761 25.3147 110.137 26.4417 110.888 27.285C111.639 28.1283 112.621 28.55 113.832 28.55C114.583 28.55 115.25 28.3737 115.833 28.021C116.431 27.6683 116.891 27.1547 117.213 26.48H121.537C121.077 28.228 120.165 29.608 118.8 30.62C117.435 31.6167 115.795 32.115 113.878 32.115C112.314 32.115 110.911 31.77 109.669 31.08C108.442 30.3747 107.484 29.401 106.794 28.159C106.104 26.917 105.759 25.4987 105.759 23.904ZM127.81 15.854V25.514C127.81 26.48 128.047 27.2237 128.523 27.745C128.998 28.2663 129.696 28.527 130.616 28.527C131.536 28.527 132.241 28.2663 132.732 27.745C133.222 27.2237 133.468 26.48 133.468 25.514V15.854H137.401V25.491C137.401 26.9323 137.094 28.1513 136.481 29.148C135.867 30.1447 135.039 30.896 133.997 31.402C132.969 31.908 131.819 32.161 130.547 32.161C129.274 32.161 128.132 31.9157 127.12 31.425C126.123 30.919 125.333 30.1677 124.751 29.171C124.168 28.159 123.877 26.9323 123.877 25.491V15.854H127.81ZM148.396 32L145.038 25.905H144.095V32H140.162V15.854H146.763C148.036 15.854 149.117 16.0763 150.006 16.521C150.911 16.9657 151.586 17.579 152.03 18.361C152.475 19.1277 152.697 19.9863 152.697 20.937C152.697 22.0103 152.391 22.9687 151.777 23.812C151.179 24.6553 150.29 25.2533 149.109 25.606L152.835 32H148.396ZM144.095 23.122H146.533C147.254 23.122 147.791 22.9457 148.143 22.593C148.511 22.2403 148.695 21.742 148.695 21.098C148.695 20.4847 148.511 20.0017 148.143 19.649C147.791 19.2963 147.254 19.12 146.533 19.12H144.095V23.122ZM161.008 32.161C159.828 32.161 158.77 31.9693 157.834 31.586C156.899 31.2027 156.148 30.6353 155.58 29.884C155.028 29.1327 154.737 28.228 154.706 27.17H158.892C158.954 27.768 159.161 28.228 159.513 28.55C159.866 28.8567 160.326 29.01 160.893 29.01C161.476 29.01 161.936 28.8797 162.273 28.619C162.611 28.343 162.779 27.9673 162.779 27.492C162.779 27.0933 162.641 26.7637 162.365 26.503C162.105 26.2423 161.775 26.0277 161.376 25.859C160.993 25.6903 160.441 25.4987 159.72 25.284C158.678 24.962 157.827 24.64 157.167 24.318C156.508 23.996 155.941 23.5207 155.465 22.892C154.99 22.2633 154.752 21.443 154.752 20.431C154.752 18.9283 155.297 17.7553 156.385 16.912C157.474 16.0533 158.892 15.624 160.64 15.624C162.419 15.624 163.853 16.0533 164.941 16.912C166.03 17.7553 166.613 18.936 166.689 20.454H162.434C162.404 19.9327 162.212 19.5263 161.859 19.235C161.507 18.9283 161.054 18.775 160.502 18.775C160.027 18.775 159.644 18.9053 159.352 19.166C159.061 19.4113 158.915 19.7717 158.915 20.247C158.915 20.7683 159.161 21.1747 159.651 21.466C160.142 21.7573 160.909 22.0717 161.951 22.409C162.994 22.7617 163.837 23.099 164.481 23.421C165.141 23.743 165.708 24.2107 166.183 24.824C166.659 25.4373 166.896 26.227 166.896 27.193C166.896 28.113 166.659 28.9487 166.183 29.7C165.723 30.4513 165.049 31.0493 164.159 31.494C163.27 31.9387 162.22 32.161 161.008 32.161ZM176.953 32.161C175.435 32.161 174.039 31.8083 172.767 31.103C171.509 30.3977 170.505 29.4163 169.754 28.159C169.018 26.8863 168.65 25.4603 168.65 23.881C168.65 22.3017 169.018 20.8833 169.754 19.626C170.505 18.3687 171.509 17.3873 172.767 16.682C174.039 15.9767 175.435 15.624 176.953 15.624C178.471 15.624 179.858 15.9767 181.116 16.682C182.388 17.3873 183.385 18.3687 184.106 19.626C184.842 20.8833 185.21 22.3017 185.21 23.881C185.21 25.4603 184.842 26.8863 184.106 28.159C183.37 29.4163 182.373 30.3977 181.116 31.103C179.858 31.8083 178.471 32.161 176.953 32.161ZM176.953 28.573C178.241 28.573 179.268 28.1437 180.035 27.285C180.817 26.4263 181.208 25.2917 181.208 23.881C181.208 22.455 180.817 21.3203 180.035 20.477C179.268 19.6183 178.241 19.189 176.953 19.189C175.649 19.189 174.607 19.6107 173.825 20.454C173.058 21.2973 172.675 22.4397 172.675 23.881C172.675 25.307 173.058 26.4493 173.825 27.308C174.607 28.1513 175.649 28.573 176.953 28.573Z" fill="white"/>
</svg>
