<svg width="84" height="50" viewBox="0 0 84 50" fill="none" xmlns="http://www.w3.org/2000/svg">
<path d="M33.054 25.6351L29.4 1.93668C37.5982 -0.645559 46.4018 -0.645559 54.6 1.93668L50.946 25.6351C50.652 27.676 48.846 29.1753 46.746 29.1753H37.212C36.2063 29.1766 35.2335 28.8201 34.4705 28.1704C33.7075 27.5207 33.2049 26.6212 33.054 25.6351ZM84 41.6701C84 38.3798 82.026 35.4227 78.96 34.0483C76.9387 24.4182 71.214 15.9476 63 10.4331L55.608 30.5914C55.02 32.2574 53.424 33.3403 51.66 33.3403H32.34C30.576 33.3403 28.98 32.2574 28.392 30.5914L21 10.4331C12.7966 15.9393 7.07337 24.3927 5.04 34.0067C1.974 35.4227 0 38.3382 0 41.6701L27.09 49.3336C28.602 49.7501 30.156 50 31.71 50H52.206C53.76 50 55.314 49.7501 56.826 49.3336L84 41.6701Z" fill="#01B4E5"/>
</svg>
