<svg width="20" height="20" viewBox="0 0 20 20" fill="none" xmlns="http://www.w3.org/2000/svg">
<g clip-path="url(#clip0_150_156)">
<rect width="20" height="20" fill="#D84727"/>
<mask id="mask0_150_156" style="mask-type:luminance" maskUnits="userSpaceOnUse" x="0" y="0" width="20" height="20">
<path d="M0 0H20V20H0V0Z" fill="white"/>
</mask>
<g mask="url(#mask0_150_156)">
<path fill-rule="evenodd" clip-rule="evenodd" d="M20 0H0V20H20V0ZM14.8067 5.53333C14.8798 5.4497 14.9355 5.35228 14.9705 5.24681C15.0054 5.14133 15.019 5.02993 15.0102 4.91915C15.0015 4.80838 14.9707 4.70047 14.9196 4.60177C14.8686 4.50308 14.7983 4.41559 14.713 4.34445C14.6276 4.27331 14.5289 4.21997 14.4226 4.18755C14.3163 4.15514 14.2046 4.1443 14.0941 4.15569C13.9835 4.16708 13.8764 4.20046 13.779 4.25386C13.6815 4.30727 13.5957 4.37962 13.5267 4.46667L10 8.69833L6.47375 4.46667C6.40426 4.38087 6.31842 4.30973 6.22121 4.25739C6.124 4.20505 6.01736 4.17255 5.90748 4.16177C5.7976 4.151 5.68667 4.16217 5.58115 4.19463C5.47562 4.22709 5.3776 4.28019 5.29277 4.35086C5.20794 4.42153 5.138 4.50835 5.08701 4.60627C5.03602 4.7042 5.005 4.81128 4.99575 4.9213C4.9865 5.03132 4.9992 5.14208 5.03312 5.24715C5.06704 5.35221 5.1215 5.44949 5.19333 5.53333L8.91542 10L5.19333 14.4667C5.12017 14.5503 5.06447 14.6477 5.02951 14.7532C4.99455 14.8587 4.98104 14.9701 4.98977 15.0808C4.9985 15.1916 5.0293 15.2995 5.08035 15.3982C5.1314 15.4969 5.20168 15.5844 5.28704 15.6555C5.37241 15.7267 5.47113 15.78 5.57742 15.8124C5.6837 15.8449 5.7954 15.8557 5.90593 15.8443C6.01646 15.8329 6.1236 15.7995 6.22105 15.7461C6.31849 15.6927 6.40427 15.6204 6.47333 15.5333L10 11.3017L13.5267 15.5333C13.5957 15.6204 13.6815 15.6927 13.779 15.7461C13.8764 15.7995 13.9835 15.8329 14.0941 15.8443C14.2046 15.8557 14.3163 15.8449 14.4226 15.8124C14.5289 15.78 14.6276 15.7267 14.713 15.6555C14.7983 15.5844 14.8686 15.4969 14.9196 15.3982C14.9707 15.2995 15.0015 15.1916 15.0102 15.0808C15.019 14.9701 15.0054 14.8587 14.9705 14.7532C14.9355 14.6477 14.8798 14.5503 14.8067 14.4667L11.0846 10L14.8067 5.53333Z" fill="white"/>
</g>
</g>
<defs>
<clipPath id="clip0_150_156">
<rect width="20" height="20" fill="white"/>
</clipPath>
</defs>
</svg>
