<svg width="19" height="23" viewBox="0 0 19 23" fill="none" xmlns="http://www.w3.org/2000/svg">
<path d="M16.8889 2.3H12.4767C12.0333 0.966 10.8722 0 9.5 0C8.12778 0 6.96667 0.966 6.52333 2.3H2.11111C0.95 2.3 0 3.335 0 4.6V20.7C0 21.965 0.95 23 2.11111 23H16.8889C18.05 23 19 21.965 19 20.7V4.6C19 3.335 18.05 2.3 16.8889 2.3ZM9.5 2.3C10.0806 2.3 10.5556 2.8175 10.5556 3.45C10.5556 4.0825 10.0806 4.6 9.5 4.6C8.91945 4.6 8.44444 4.0825 8.44444 3.45C8.44444 2.8175 8.91945 2.3 9.5 2.3ZM7.38889 18.4L3.16667 13.8L4.655 12.1785L7.38889 15.1455L14.345 7.567L15.8333 9.2L7.38889 18.4Z" fill="#01B4E5"/>
</svg>
