<svg width="24" height="16" viewBox="0 0 24 16" fill="none" xmlns="http://www.w3.org/2000/svg">
<path id="Vector" d="M17.4 8C19.056 8 20.388 6.72 20.388 5.14286C20.388 3.56571 19.056 2.28571 17.4 2.28571C15.744 2.28571 14.4 3.56571 14.4 5.14286C14.4 6.72 15.744 8 17.4 8ZM8.4 6.85714C10.392 6.85714 11.988 5.32571 11.988 3.42857C11.988 1.53143 10.392 0 8.4 0C6.408 0 4.8 1.53143 4.8 3.42857C4.8 5.32571 6.408 6.85714 8.4 6.85714ZM17.4 10.2857C15.204 10.2857 10.8 11.3371 10.8 13.4286V16H24V13.4286C24 11.3371 19.596 10.2857 17.4 10.2857ZM8.4 9.14286C5.604 9.14286 0 10.48 0 13.1429V16H8.4V13.4286C8.4 12.4571 8.796 10.7543 11.244 9.46286C10.2 9.25714 9.192 9.14286 8.4 9.14286Z" fill="white"/>
</svg>
