<svg width="58" height="40" viewBox="0 0 58 40" fill="none" xmlns="http://www.w3.org/2000/svg">
<rect x="0.5" y="0.5" width="57" height="38.7714" rx="5.5" fill="white" stroke="#D9D9D9"/>
<g clip-path="url(#clip0_173_49)">
<path d="M8.28564 8.28564H8.74608V20.511H8.28564V8.28564ZM9.20651 8.28564H9.66695V20.511H9.20651V8.28564ZM11.9712 8.28564H12.4316V20.511H11.9712V8.28564ZM20.9335 8.28564H21.3939V20.511H20.9335V8.28564ZM23.9297 8.28564H24.3901V20.511H23.9297V8.28564ZM26.8351 8.28564H27.2955V20.511H26.8351V8.28564ZM27.5839 8.28564H28.0443V20.511H27.5845L27.5839 8.28564ZM28.3337 8.28564H28.7941V20.511H28.3337V8.28564ZM29.1764 8.28564H29.6368V20.511H29.1765L29.1764 8.28564ZM30.0189 8.28564H30.4793V20.511H30.0189V8.28564ZM32.3613 8.28564H32.8217V20.511H32.3606L32.3613 8.28564ZM38.169 8.28564H38.6294V20.511H38.169V8.28564ZM44.227 8.28564H44.6872V20.511H44.2268L44.227 8.28564ZM45.884 8.28564H46.3444V20.511H45.884V8.28564ZM47.0819 8.28564H47.5424V20.511H47.0819V8.28564ZM47.819 8.28564H48.2794V20.511H47.819V8.28564ZM15.0118 8.28564H15.4723V20.511H15.0118V8.28564ZM10.4045 8.28564H11.2336V20.511H10.4045V8.28564ZM15.876 8.28564H16.7049V20.511H15.876V8.28564ZM19.7178 8.28564H20.5468V20.511H19.7178V8.28564ZM21.6847 8.28564H22.5137V20.511H21.6847V8.28564ZM24.7758 8.28564H25.6048V20.511H24.7758V8.28564ZM33.5886 8.28564H34.878V20.511H33.5886V8.28564ZM35.2728 8.28564H36.2856V20.511H35.2717L35.2728 8.28564ZM37.0501 8.28564H37.8791V20.511H37.0501V8.28564ZM39.4002 8.28564H40.7824V20.511H39.4002V8.28564ZM42.107 8.28564H43.4894V20.511H42.107V8.28564ZM12.8925 8.28564H14.5505V20.511H12.8925V8.28564ZM17.1898 8.28564H18.4792V20.511H17.1898V8.28564Z" fill="#010101"/>
<path d="M8.88184 31.3658V24.3684H11.5076C11.9464 24.3514 12.3841 24.4236 12.7942 24.5805C13.1085 24.7149 13.3735 24.9434 13.5527 25.2345C13.7303 25.51 13.8256 25.8305 13.8274 26.1582C13.8275 26.4571 13.7431 26.7499 13.5841 27.003C13.4049 27.2817 13.1498 27.5035 12.8489 27.6422C13.2351 27.7415 13.5783 27.9643 13.8262 28.2766C14.0556 28.5816 14.1757 28.9548 14.1673 29.3364C14.17 29.6531 14.0991 29.966 13.96 30.2506C13.8425 30.5057 13.6659 30.7292 13.4449 30.9026C13.2148 31.0676 12.9544 31.1855 12.6785 31.2493C12.3086 31.3342 11.9298 31.3735 11.5503 31.3666L8.88184 31.3658ZM9.8087 27.3089H11.3219C11.6175 27.3204 11.9132 27.2932 12.2017 27.2277C12.4128 27.1742 12.6 27.0517 12.7335 26.8797C12.8578 26.7009 12.9206 26.4864 12.9124 26.2687C12.9167 26.0526 12.8587 25.8399 12.7453 25.6559C12.6372 25.4812 12.4691 25.3519 12.2724 25.2922C11.9236 25.212 11.5655 25.1791 11.2078 25.1943H9.80901L9.8087 27.3089ZM9.8087 30.5403H11.5507C11.7614 30.5459 11.9722 30.5348 12.1812 30.5072C12.3702 30.4765 12.5516 30.4101 12.7159 30.3116C12.8659 30.2147 12.9877 30.0798 13.0688 29.9207C13.1635 29.7399 13.2113 29.5382 13.2077 29.3341C13.2142 29.0907 13.1441 28.8513 13.0073 28.6497C12.8723 28.4563 12.6765 28.3136 12.451 28.2441C12.1177 28.154 11.7727 28.1144 11.4275 28.1269H9.8087V30.5403ZM15.5205 27.9585C15.4618 26.9614 15.7978 25.9812 16.4558 25.2296C16.7659 24.904 17.1415 24.6478 17.5579 24.4779C17.9743 24.308 18.422 24.2284 18.8714 24.2442C19.4851 24.2358 20.0894 24.3961 20.6183 24.7076C21.1324 25.0115 21.545 25.4608 21.8041 25.9989C22.0834 26.5849 22.2229 27.2278 22.2117 27.8769C22.2235 28.5368 22.0767 29.1898 21.7836 29.7812C21.5175 30.3193 21.0927 30.7629 20.5666 31.052C20.0464 31.3388 19.4614 31.4875 18.8675 31.484C18.246 31.4943 17.6342 31.3293 17.102 31.008C16.59 30.6976 16.1799 30.2443 15.9222 29.7039C15.6564 29.1606 15.519 28.5634 15.5205 27.9585V27.9585ZM16.4756 27.9732C16.4359 28.7013 16.6813 29.4162 17.1599 29.9664C17.3758 30.2028 17.6399 30.3901 17.9343 30.5158C18.2288 30.6414 18.5468 30.7024 18.8668 30.6946C19.1888 30.7028 19.5087 30.6412 19.8047 30.5142C20.1006 30.3871 20.3656 30.1976 20.5814 29.9585C21.0642 29.3747 21.3059 28.6285 21.257 27.8725C21.2698 27.3606 21.1728 26.8519 20.9725 26.3807C20.7959 25.9743 20.5018 25.63 20.1279 25.3923C19.7542 25.1575 19.3207 25.0357 18.8795 25.0414C18.5668 25.0367 18.2562 25.0939 17.9658 25.2099C17.6754 25.3258 17.4108 25.4981 17.1873 25.7169C16.9229 26.0255 16.7236 26.3843 16.6013 26.7718C16.479 27.1594 16.4362 27.5676 16.4756 27.9721V27.9732ZM23.7302 31.3663V24.3684H24.6559V30.5397H28.1019V31.3658L23.7302 31.3663ZM29.5858 31.3663V24.3684H34.6457V25.1943H30.5115V27.3381H34.3827V28.1592H30.5115V30.5405H34.808V31.3666L29.5858 31.3663ZM38.2295 31.3663V25.1943H35.9229V24.3684H41.4696V25.1943H39.1547V31.3658L38.2295 31.3663ZM42.3235 27.9585C42.2655 26.9612 42.6023 25.9811 43.261 25.2301C43.5711 24.9044 43.9467 24.6482 44.3631 24.4783C44.7795 24.3085 45.2271 24.2288 45.6766 24.2446C46.2903 24.2363 46.8945 24.3966 47.4234 24.7081C47.9375 25.0119 48.3502 25.4612 48.6092 25.9993C48.8887 26.5853 49.0282 27.2282 49.0169 27.8773C49.0283 28.5373 48.8812 29.1904 48.5878 29.7817C48.3208 30.3207 47.8946 30.7647 47.3668 31.0534C46.8466 31.3402 46.2617 31.4889 45.6677 31.4855C45.0458 31.4957 44.4336 31.3304 43.9013 31.0085C43.3904 30.6977 42.9813 30.2445 42.7243 29.7044C42.4587 29.1608 42.3216 28.5635 42.3235 27.9585V27.9585ZM43.2785 27.9732C43.2388 28.7013 43.4842 29.4162 43.9628 29.9664C44.1787 30.2028 44.4428 30.3901 44.7373 30.5158C45.0317 30.6414 45.3497 30.7024 45.6698 30.6946C45.9927 30.7038 46.3137 30.6428 46.6107 30.5159C46.9078 30.389 47.1737 30.1991 47.3903 29.9595C47.8731 29.3756 48.1148 28.6294 48.0657 27.8734C48.0758 27.3609 47.9757 26.8522 47.7724 26.3816C47.5958 25.9752 47.3017 25.631 46.9278 25.3933C46.5544 25.1587 46.1212 25.0368 45.6802 25.0424C45.3675 25.0376 45.0569 25.0949 44.7665 25.2108C44.476 25.3267 44.2114 25.4991 43.9879 25.7178C43.724 26.0265 43.5252 26.3852 43.4033 26.7725C43.2814 27.1599 43.239 27.5678 43.2785 27.9719V27.9732Z" fill="black"/>
</g>
<defs>
<clipPath id="clip0_173_49">
<rect width="40.732" height="23.2" fill="white" transform="translate(8.28564 8.28564)"/>
</clipPath>
</defs>
</svg>
