<svg width="87" height="38" viewBox="0 0 87 38" fill="none" xmlns="http://www.w3.org/2000/svg">
<rect x="0.5" y="0.5" width="86" height="37" rx="3.30625" fill="white"/>
<path fill-rule="evenodd" clip-rule="evenodd" d="M10.7324 19.78H19.3499L25.2545 29.8193H16.6357L10.7324 19.78Z" fill="#1963AC"/>
<path fill-rule="evenodd" clip-rule="evenodd" d="M11.6284 18.2383H20.5356L28.2714 8.24096H19.3642L11.6284 18.2383Z" fill="#F6822A"/>
<path fill-rule="evenodd" clip-rule="evenodd" d="M2.72266 29.8809H11.6284L19.3642 19.7617H10.4571L2.72266 29.8809Z" fill="#F6822A"/>
<path fill-rule="evenodd" clip-rule="evenodd" d="M5.93408 8.11912H14.2464L19.9419 18.2383H11.6282L5.93408 8.11912Z" fill="#1963AC"/>
<path d="M31.8844 13.1535C31.8844 12.5988 32.0095 12.1013 32.2596 11.6609C32.5097 11.215 32.8496 10.867 33.2791 10.6169C33.7141 10.3667 34.1953 10.2417 34.7228 10.2417C35.3427 10.2417 35.8837 10.3912 36.3459 10.6903C36.8081 10.9893 37.1452 11.4135 37.3573 11.9627H36.4682C36.3105 11.6201 36.0822 11.3564 35.7831 11.1715C35.4895 10.9866 35.136 10.8942 34.7228 10.8942C34.3258 10.8942 33.9697 10.9866 33.6543 11.1715C33.3389 11.3564 33.0915 11.6201 32.9121 11.9627C32.7327 12.2998 32.6429 12.6967 32.6429 13.1535C32.6429 13.6048 32.7327 14.0017 32.9121 14.3443C33.0915 14.6814 33.3389 14.9424 33.6543 15.1273C33.9697 15.3122 34.3258 15.4046 34.7228 15.4046C35.136 15.4046 35.4895 15.3149 35.7831 15.1354C36.0822 14.9506 36.3105 14.6868 36.4682 14.3443H37.3573C37.1452 14.888 36.8081 15.3094 36.3459 15.6085C35.8837 15.9021 35.3427 16.0489 34.7228 16.0489C34.1953 16.0489 33.7141 15.9266 33.2791 15.6819C32.8496 15.4318 32.5097 15.0865 32.2596 14.6461C32.0095 14.2056 31.8844 13.7081 31.8844 13.1535ZM38.1848 13.7489C38.1848 13.2921 38.2772 12.8925 38.4621 12.5499C38.647 12.2019 38.8998 11.9327 39.2206 11.7424C39.5469 11.5521 39.9085 11.457 40.3054 11.457C40.6969 11.457 41.0368 11.5412 41.325 11.7098C41.6131 11.8784 41.8279 12.0904 41.9693 12.346V11.5304H42.7197V16H41.9693V15.1681C41.8225 15.4291 41.6023 15.6466 41.3086 15.8206C41.0205 15.9891 40.6833 16.0734 40.2973 16.0734C39.9003 16.0734 39.5415 15.9755 39.2206 15.7798C38.8998 15.584 38.647 15.3094 38.4621 14.956C38.2772 14.6026 38.1848 14.2002 38.1848 13.7489ZM41.9693 13.757C41.9693 13.4199 41.9013 13.1263 41.7654 12.8762C41.6295 12.626 41.4446 12.4357 41.2108 12.3052C40.9824 12.1693 40.7295 12.1013 40.4522 12.1013C40.1749 12.1013 39.9221 12.1666 39.6937 12.2971C39.4653 12.4276 39.2832 12.6179 39.1472 12.868C39.0113 13.1181 38.9433 13.4117 38.9433 13.7489C38.9433 14.0914 39.0113 14.3905 39.1472 14.6461C39.2832 14.8962 39.4653 15.0892 39.6937 15.2252C39.9221 15.3557 40.1749 15.4209 40.4522 15.4209C40.7295 15.4209 40.9824 15.3557 41.2108 15.2252C41.4446 15.0892 41.6295 14.8962 41.7654 14.6461C41.9013 14.3905 41.9693 14.0942 41.9693 13.757ZM44.7162 12.2563C44.8467 12.0007 45.0315 11.8022 45.2708 11.6609C45.5155 11.5195 45.8118 11.4488 46.1598 11.4488V12.2155H45.9641C45.1321 12.2155 44.7162 12.6668 44.7162 13.5694V16H43.9739V11.5304H44.7162V12.2563ZM47.922 12.1421V14.7766C47.922 14.9941 47.9682 15.149 48.0606 15.2415C48.153 15.3285 48.3135 15.372 48.5418 15.372H49.0883V16H48.4195C48.0062 16 47.6963 15.9048 47.4897 15.7145C47.283 15.5242 47.1797 15.2116 47.1797 14.7766V12.1421H46.6006V11.5304H47.1797V10.4048H47.922V11.5304H49.0883V12.1421H47.922ZM49.7103 13.7489C49.7103 13.2921 49.8027 12.8925 49.9876 12.5499C50.1725 12.2019 50.4253 11.9327 50.7461 11.7424C51.0724 11.5521 51.434 11.457 51.8309 11.457C52.2224 11.457 52.5622 11.5412 52.8504 11.7098C53.1386 11.8784 53.3534 12.0904 53.4948 12.346V11.5304H54.2452V16H53.4948V15.1681C53.348 15.4291 53.1277 15.6466 52.8341 15.8206C52.5459 15.9891 52.2088 16.0734 51.8227 16.0734C51.4258 16.0734 51.0669 15.9755 50.7461 15.7798C50.4253 15.584 50.1725 15.3094 49.9876 14.956C49.8027 14.6026 49.7103 14.2002 49.7103 13.7489ZM53.4948 13.757C53.4948 13.4199 53.4268 13.1263 53.2909 12.8762C53.1549 12.626 52.9701 12.4357 52.7362 12.3052C52.5079 12.1693 52.255 12.1013 51.9777 12.1013C51.7004 12.1013 51.4476 12.1666 51.2192 12.2971C50.9908 12.4276 50.8087 12.6179 50.6727 12.868C50.5368 13.1181 50.4688 13.4117 50.4688 13.7489C50.4688 14.0914 50.5368 14.3905 50.6727 14.6461C50.8087 14.8962 50.9908 15.0892 51.2192 15.2252C51.4476 15.3557 51.7004 15.4209 51.9777 15.4209C52.255 15.4209 52.5079 15.3557 52.7362 15.2252C52.9701 15.0892 53.1549 14.8962 53.2909 14.6461C53.4268 14.3905 53.4948 14.0942 53.4948 13.757ZM50.9256 11.0492C50.9636 10.7718 51.0533 10.5598 51.1947 10.413C51.3415 10.2662 51.5237 10.1927 51.7412 10.1927C51.8445 10.1927 51.9315 10.2118 52.0022 10.2498C52.0783 10.2825 52.168 10.3314 52.2713 10.3967C52.3475 10.451 52.4154 10.4945 52.4752 10.5272C52.5351 10.5543 52.6003 10.5679 52.671 10.5679C52.7634 10.5679 52.8423 10.538 52.9075 10.4782C52.9728 10.4184 53.0136 10.3314 53.0299 10.2172H53.454C53.4214 10.4891 53.3317 10.6984 53.1848 10.8452C53.038 10.9921 52.8559 11.0655 52.6384 11.0655C52.5351 11.0655 52.4426 11.0492 52.3611 11.0165C52.2849 10.9785 52.1979 10.9241 52.1001 10.8534C52.0131 10.799 51.9424 10.7582 51.888 10.7311C51.8391 10.7039 51.7792 10.6903 51.7086 10.6903C51.6161 10.6903 51.5373 10.7202 51.472 10.78C51.4122 10.8398 51.3742 10.9295 51.3578 11.0492H50.9256ZM57.4488 16.0734C57.0301 16.0734 56.6495 15.9783 56.3069 15.7879C55.9698 15.5976 55.7033 15.3285 55.5076 14.9805C55.3173 14.627 55.2221 14.2192 55.2221 13.757C55.2221 13.3003 55.32 12.8979 55.5157 12.5499C55.7169 12.1965 55.9888 11.9273 56.3314 11.7424C56.6739 11.5521 57.0573 11.457 57.4814 11.457C57.9055 11.457 58.2889 11.5521 58.6314 11.7424C58.974 11.9273 59.2431 12.1937 59.4389 12.5417C59.6401 12.8897 59.7407 13.2948 59.7407 13.757C59.7407 14.2192 59.6374 14.627 59.4307 14.9805C59.2296 15.3285 58.955 15.5976 58.607 15.7879C58.259 15.9783 57.8729 16.0734 57.4488 16.0734ZM57.4488 15.4209C57.7152 15.4209 57.9653 15.3584 58.1991 15.2333C58.433 15.1082 58.6206 14.9207 58.7619 14.6705C58.9087 14.4204 58.9821 14.1159 58.9821 13.757C58.9821 13.3982 58.9115 13.0937 58.7701 12.8435C58.6287 12.5934 58.4438 12.4085 58.2155 12.2889C57.9871 12.1638 57.7397 12.1013 57.4732 12.1013C57.2014 12.1013 56.9512 12.1638 56.7229 12.2889C56.4999 12.4085 56.3205 12.5934 56.1846 12.8435C56.0486 13.0937 55.9806 13.3982 55.9806 13.757C55.9806 14.1213 56.0459 14.4286 56.1764 14.6787C56.3123 14.9288 56.4918 15.1164 56.7147 15.2415C56.9376 15.3611 57.1823 15.4209 57.4488 15.4209ZM33.8256 27.3149L35.2122 23.5304H36.0033L34.2497 28H33.3852L31.6316 23.5304H32.4309L33.8256 27.3149ZM37.117 22.8045C36.9757 22.8045 36.856 22.7555 36.7582 22.6577C36.6603 22.5598 36.6113 22.4402 36.6113 22.2988C36.6113 22.1574 36.6603 22.0378 36.7582 21.9399C36.856 21.842 36.9757 21.7931 37.117 21.7931C37.253 21.7931 37.3672 21.842 37.4596 21.9399C37.5575 22.0378 37.6064 22.1574 37.6064 22.2988C37.6064 22.4402 37.5575 22.5598 37.4596 22.6577C37.3672 22.7555 37.253 22.8045 37.117 22.8045ZM37.4759 23.5304V28H36.7337V23.5304H37.4759ZM39.4831 24.2563C39.6136 24.0007 39.7985 23.8022 40.0377 23.6609C40.2824 23.5195 40.5788 23.4488 40.9268 23.4488V24.2155H40.731C39.8991 24.2155 39.4831 24.6668 39.4831 25.5694V28H38.7409V23.5304H39.4831V24.2563ZM42.6889 24.1421V26.7766C42.6889 26.9941 42.7351 27.149 42.8275 27.2415C42.92 27.3285 43.0804 27.372 43.3088 27.372H43.8552V28H43.1864C42.7732 28 42.4632 27.9048 42.2566 27.7145C42.05 27.5242 41.9467 27.2116 41.9467 26.7766V24.1421H41.3676V23.5304H41.9467V22.4048H42.6889V23.5304H43.8552V24.1421H42.6889ZM48.7185 23.5304V28H47.9762V27.3393C47.8349 27.5677 47.6364 27.7472 47.3808 27.8777C47.1307 28.0027 46.8534 28.0653 46.5489 28.0653C46.2009 28.0653 45.8882 27.9946 45.6109 27.8532C45.3336 27.7064 45.1134 27.4889 44.9503 27.2007C44.7926 26.9125 44.7137 26.5618 44.7137 26.1485V23.5304H45.4478V26.0507C45.4478 26.4911 45.5593 26.8309 45.7822 27.0702C46.0052 27.304 46.3097 27.4209 46.6957 27.4209C47.0927 27.4209 47.4053 27.2986 47.6337 27.0539C47.8621 26.8092 47.9762 26.453 47.9762 25.9854V23.5304H48.7185ZM49.6943 25.7489C49.6943 25.2921 49.7868 24.8925 49.9717 24.5499C50.1565 24.2019 50.4094 23.9327 50.7302 23.7424C51.0564 23.5521 51.418 23.457 51.815 23.457C52.2065 23.457 52.5463 23.5412 52.8345 23.7098C53.1227 23.8784 53.3375 24.0904 53.4788 24.346V23.5304H54.2292V28H53.4788V27.1681C53.332 27.4291 53.1118 27.6466 52.8182 27.8206C52.53 27.9891 52.1929 28.0734 51.8068 28.0734C51.4099 28.0734 51.051 27.9755 50.7302 27.7798C50.4094 27.584 50.1565 27.3094 49.9717 26.956C49.7868 26.6026 49.6943 26.2002 49.6943 25.7489ZM53.4788 25.757C53.4788 25.4199 53.4109 25.1263 53.2749 24.8762C53.139 24.626 52.9541 24.4357 52.7203 24.3052C52.4919 24.1693 52.2391 24.1013 51.9618 24.1013C51.6845 24.1013 51.4316 24.1666 51.2033 24.2971C50.9749 24.4276 50.7927 24.6179 50.6568 24.868C50.5208 25.1181 50.4529 25.4117 50.4529 25.7489C50.4529 26.0914 50.5208 26.3905 50.6568 26.6461C50.7927 26.8962 50.9749 27.0892 51.2033 27.2252C51.4316 27.3557 51.6845 27.4209 51.9618 27.4209C52.2391 27.4209 52.4919 27.3557 52.7203 27.2252C52.9541 27.0892 53.139 26.8962 53.2749 26.6461C53.4109 26.3905 53.4788 26.0942 53.4788 25.757ZM56.2257 21.9644V28H55.4835V21.9644H56.2257ZM59.3879 25.757C59.3879 25.2948 59.4803 24.8925 59.6652 24.5499C59.85 24.2019 60.1056 23.9327 60.4319 23.7424C60.7635 23.5521 61.1415 23.457 61.5656 23.457C62.1148 23.457 62.5661 23.5902 62.9195 23.8566C63.2784 24.1231 63.5149 24.4928 63.6291 24.9659H62.8298C62.7537 24.694 62.6041 24.4792 62.3812 24.3215C62.1637 24.1638 61.8918 24.085 61.5656 24.085C61.1415 24.085 60.7989 24.2318 60.5379 24.5254C60.2769 24.8136 60.1464 25.2242 60.1464 25.757C60.1464 26.2953 60.2769 26.7113 60.5379 27.0049C60.7989 27.2986 61.1415 27.4454 61.5656 27.4454C61.8918 27.4454 62.1637 27.3692 62.3812 27.217C62.5987 27.0647 62.7482 26.8472 62.8298 26.5645H63.6291C63.5095 27.0212 63.2702 27.3883 62.9114 27.6656C62.5525 27.9375 62.1039 28.0734 61.5656 28.0734C61.1415 28.0734 60.7635 27.9783 60.4319 27.7879C60.1056 27.5976 59.85 27.3285 59.6652 26.9805C59.4803 26.6325 59.3879 26.2247 59.3879 25.757ZM64.3421 25.7489C64.3421 25.2921 64.4346 24.8925 64.6195 24.5499C64.8043 24.2019 65.0572 23.9327 65.378 23.7424C65.7042 23.5521 66.0658 23.457 66.4628 23.457C66.8543 23.457 67.1941 23.5412 67.4823 23.7098C67.7705 23.8784 67.9853 24.0904 68.1266 24.346V23.5304H68.877V28H68.1266V27.1681C67.9798 27.4291 67.7596 27.6466 67.466 27.8206C67.1778 27.9891 66.8407 28.0734 66.4546 28.0734C66.0577 28.0734 65.6988 27.9755 65.378 27.7798C65.0572 27.584 64.8043 27.3094 64.6195 26.956C64.4346 26.6026 64.3421 26.2002 64.3421 25.7489ZM68.1266 25.757C68.1266 25.4199 68.0587 25.1263 67.9227 24.8762C67.7868 24.626 67.6019 24.4357 67.3681 24.3052C67.1397 24.1693 66.8869 24.1013 66.6096 24.1013C66.3323 24.1013 66.0794 24.1666 65.851 24.2971C65.6227 24.4276 65.4405 24.6179 65.3046 24.868C65.1686 25.1181 65.1007 25.4117 65.1007 25.7489C65.1007 26.0914 65.1686 26.3905 65.3046 26.6461C65.4405 26.8962 65.6227 27.0892 65.851 27.2252C66.0794 27.3557 66.3323 27.4209 66.6096 27.4209C66.8869 27.4209 67.1397 27.3557 67.3681 27.2252C67.6019 27.0892 67.7868 26.8962 67.9227 26.6461C68.0587 26.3905 68.1266 26.0942 68.1266 25.757ZM70.5146 22.8045C70.3733 22.8045 70.2536 22.7555 70.1558 22.6577C70.0579 22.5598 70.009 22.4402 70.009 22.2988C70.009 22.1574 70.0579 22.0378 70.1558 21.9399C70.2536 21.842 70.3733 21.7931 70.5146 21.7931C70.6506 21.7931 70.7648 21.842 70.8572 21.9399C70.9551 22.0378 71.004 22.1574 71.004 22.2988C71.004 22.4402 70.9551 22.5598 70.8572 22.6577C70.7648 22.7555 70.6506 22.8045 70.5146 22.8045ZM70.8735 23.5304V28H70.1313V23.5304H70.8735ZM74.4712 28L73.4109 26.3361L72.3913 28H71.6165L73.0602 25.7815L71.6165 23.5304H72.4566L73.5169 25.1861L74.5283 23.5304H75.3031L73.8676 25.7407L75.3113 28H74.4712ZM75.7641 25.7489C75.7641 25.2921 75.8565 24.8925 76.0414 24.5499C76.2263 24.2019 76.4791 23.9327 76.7999 23.7424C77.1262 23.5521 77.4878 23.457 77.8847 23.457C78.2762 23.457 78.616 23.5412 78.9042 23.7098C79.1924 23.8784 79.4072 24.0904 79.5486 24.346V23.5304H80.299V28H79.5486V27.1681C79.4018 27.4291 79.1815 27.6466 78.8879 27.8206C78.5997 27.9891 78.2626 28.0734 77.8765 28.0734C77.4796 28.0734 77.1207 27.9755 76.7999 27.7798C76.4791 27.584 76.2263 27.3094 76.0414 26.956C75.8565 26.6026 75.7641 26.2002 75.7641 25.7489ZM79.5486 25.757C79.5486 25.4199 79.4806 25.1263 79.3447 24.8762C79.2087 24.626 79.0239 24.4357 78.79 24.3052C78.5617 24.1693 78.3088 24.1013 78.0315 24.1013C77.7542 24.1013 77.5014 24.1666 77.273 24.2971C77.0446 24.4276 76.8625 24.6179 76.7265 24.868C76.5906 25.1181 76.5226 25.4117 76.5226 25.7489C76.5226 26.0914 76.5906 26.3905 76.7265 26.6461C76.8625 26.8962 77.0446 27.0892 77.273 27.2252C77.5014 27.3557 77.7542 27.4209 78.0315 27.4209C78.3088 27.4209 78.5617 27.3557 78.79 27.2252C79.0239 27.0892 79.2087 26.8962 79.3447 26.6461C79.4806 26.3905 79.5486 26.0942 79.5486 25.757Z" fill="#151515"/>
<rect x="0.5" y="0.5" width="86" height="37" rx="3.30625" stroke="#CCCCCC"/>
</svg>
