<svg width="57" height="39" viewBox="0 0 57 39" fill="none" xmlns="http://www.w3.org/2000/svg">
<g id="Payment Method/Elo">
<rect x="0.5" y="0.5" width="56" height="37.5588" rx="7.5" fill="white"/>
<g id="Vector">
<path d="M19.6864 20.0289C19.2412 22.2065 17.3083 23.844 14.9916 23.844C14.4601 23.844 13.9485 23.7575 13.4712 23.5982L12.4071 26.7663C13.2191 27.0372 14.088 27.1838 14.9916 27.1838C18.9295 27.1838 22.2142 24.3993 22.9711 20.6992L19.6864 20.0289Z" fill="#EC412A"/>
<path fill-rule="evenodd" clip-rule="evenodd" d="M38.7798 12.8742V22.0345L40.3998 22.6934L39.6335 24.5002L38.0314 23.8468C37.6711 23.6935 37.4274 23.4599 37.2421 23.1962C37.0643 22.9263 36.9324 22.5575 36.9324 22.0597V12.8742H38.7798ZM26.4931 19.6824C26.5333 17.0628 28.7319 14.9718 31.3996 15.0119C33.6639 15.0467 35.54 16.6029 36.0327 18.6727L27.2753 22.3453C26.7666 21.5822 26.4775 20.6642 26.4931 19.6824ZM28.4969 20.0497C28.4849 19.9398 28.4764 19.8271 28.4796 19.7134C28.5047 18.17 29.7991 16.9385 31.3708 16.964C32.2264 16.9753 32.986 17.3597 33.4996 17.9546L28.4969 20.0497ZM33.3152 21.7504C32.7874 22.2542 32.0716 22.5611 31.2814 22.5501C30.7397 22.5412 30.2378 22.382 29.8111 22.1169L28.7531 23.7709C29.4776 24.2203 30.3319 24.4862 31.2529 24.5002C32.5936 24.5197 33.8155 24.003 34.704 23.1497L33.3152 21.7504ZM45.5223 16.964C45.2067 16.964 44.9034 17.014 44.6201 17.1074L43.9897 15.2539C44.4709 15.0963 44.9861 15.0106 45.5223 15.0106C47.8621 15.0106 49.8141 16.6415 50.2617 18.8079L48.3103 19.1983C48.0473 17.9233 46.899 16.964 45.5223 16.964ZM42.3184 23.3097L43.6369 21.8467C43.048 21.3351 42.6772 20.588 42.6772 19.7552C42.6772 18.9233 43.048 18.1766 43.6364 17.6654L42.3169 16.2023C41.3166 17.0716 40.6863 18.3418 40.6863 19.7552C40.6863 21.1705 41.317 22.4402 42.3184 23.3097ZM45.5222 22.5475C46.8977 22.5475 48.0458 21.5891 48.3103 20.3159L50.2611 20.708C49.8113 22.8721 47.8599 24.5007 45.5222 24.5007C44.9856 24.5007 44.4697 24.4148 43.9872 24.2564L44.6191 22.4036C44.9029 22.4966 45.2064 22.5475 45.5222 22.5475Z" fill="black"/>
<path d="M9.55935 25.3951L11.5267 22.8175C10.6485 21.9161 10.0943 20.6003 10.0943 19.1336C10.0943 17.6679 10.648 16.3521 11.5259 15.4515L9.55754 12.8742C8.06534 14.4055 7.125 16.6423 7.125 19.1336C7.125 21.6262 8.06672 23.8638 9.55935 25.3951Z" fill="#1BA7DE"/>
<path d="M13.4696 14.6678C13.947 14.509 14.4576 14.4228 14.9889 14.4228C17.3076 14.4228 19.2417 16.0623 19.6854 18.2403L22.9711 17.5734C22.2172 13.8718 18.9303 11.0854 14.9889 11.0854C14.0865 11.0854 13.2179 11.2318 12.4071 11.5013L13.4696 14.6678Z" fill="#FECA2F"/>
</g>
<rect x="0.5" y="0.5" width="56" height="37.5588" rx="7.5" stroke="#CCCCCC"/>
</g>
</svg>
