<svg width="57" height="36" viewBox="0 0 57 36" fill="none" xmlns="http://www.w3.org/2000/svg">
<g id="Group 80">
<g id="Group 81">
<rect id="BASE" x="0.5" y="0.5" width="56" height="35" rx="5.5" fill="white" stroke="#D9D9D9"/>
<g id="Group 1">
<path id="path6" d="M18.5918 23.2345V16.7944C18.5916 16.7869 18.5929 16.7794 18.5956 16.7724C18.5984 16.7654 18.6027 16.7589 18.6081 16.7534C18.6135 16.7479 18.62 16.7435 18.6272 16.7404C18.6344 16.7373 18.6422 16.7356 18.6502 16.7354H19.9595C19.976 16.7354 19.9918 16.7416 20.0035 16.7527C20.0152 16.7637 20.0218 16.7788 20.0218 16.7944V19.1151H20.0419C20.2181 18.9156 20.4408 18.7575 20.6924 18.6534C20.944 18.5492 21.2177 18.5018 21.492 18.515C22.5197 18.515 22.8496 19.1513 22.8496 19.9954V23.2345C22.8496 23.2502 22.843 23.2652 22.8313 23.2763C22.8196 23.2874 22.8038 23.2936 22.7872 23.2936H21.4739C21.4574 23.2936 21.4415 23.2874 21.4298 23.2763C21.4181 23.2652 21.4115 23.2502 21.4115 23.2345V20.1155C21.4115 19.7496 21.0093 19.6372 20.7519 19.6372C20.4944 19.6372 20.0218 19.7973 20.0218 20.2545V23.2345C20.0218 23.2502 20.0152 23.2652 20.0035 23.2763C19.9918 23.2874 19.976 23.2936 19.9595 23.2936H18.6542C18.646 23.2936 18.6379 23.2921 18.6303 23.2891C18.6228 23.2861 18.6159 23.2818 18.6101 23.2763C18.6043 23.2708 18.5997 23.2643 18.5966 23.2571C18.5934 23.25 18.5918 23.2423 18.5918 23.2345Z" fill="#053D4E"/>
<path id="path8" d="M29.0139 21.9635V19.7513H28.4105C28.4023 19.7513 28.3942 19.7498 28.3866 19.7469C28.3791 19.7439 28.3722 19.7395 28.3664 19.734C28.3606 19.7286 28.356 19.7221 28.3529 19.7149C28.3498 19.7077 28.3481 19.7 28.3481 19.6923V18.8882C28.3483 18.876 28.3524 18.8641 28.36 18.8542C28.3676 18.8443 28.3782 18.8369 28.3904 18.833L29.1949 18.61L29.6233 17.3392C29.6273 17.3308 29.6335 17.3235 29.6412 17.3178C29.6489 17.3122 29.6579 17.3084 29.6675 17.3068H30.3714C30.3794 17.3062 30.3874 17.3073 30.395 17.3098C30.4025 17.3124 30.4094 17.3164 30.4153 17.3215C30.4211 17.3267 30.4258 17.333 30.429 17.34C30.4322 17.3469 30.4338 17.3544 30.4338 17.362V18.6196H31.4897C31.5062 18.6196 31.5221 18.6258 31.5337 18.6369C31.5454 18.6479 31.552 18.663 31.552 18.6786V19.6961C31.552 19.7113 31.5456 19.7258 31.5343 19.7365C31.523 19.7472 31.5077 19.7533 31.4917 19.7533H30.4338V21.8225C30.4338 22.0378 30.5625 22.1692 30.8782 22.1692H31.4816C31.4901 22.1687 31.4987 22.1699 31.5067 22.1726C31.5147 22.1753 31.5221 22.1796 31.5283 22.1851C31.5345 22.1907 31.5395 22.1974 31.5429 22.2048C31.5463 22.2122 31.548 22.2202 31.548 22.2283V23.1219C31.5477 23.1339 31.5438 23.1454 31.5366 23.1553C31.5295 23.1651 31.5194 23.1727 31.5078 23.1772C31.1921 23.314 30.8493 23.3854 30.5022 23.3868C29.4503 23.3868 29.0179 22.7961 29.0179 21.9635H29.0139Z" fill="#053D4E"/>
<path id="path10" d="M49.4479 21.9638V19.7516H48.8446C48.828 19.7516 48.8122 19.7454 48.8005 19.7343C48.7888 19.7233 48.7822 19.7082 48.7822 19.6926V18.8885C48.7824 18.8763 48.7865 18.8644 48.7941 18.8545C48.8016 18.8446 48.8123 18.8372 48.8245 18.8333L49.6289 18.6103L50.0573 17.3395C50.0612 17.3277 50.069 17.3175 50.0795 17.3103C50.09 17.3031 50.1027 17.2993 50.1157 17.2994H50.8196C50.8276 17.2989 50.8356 17.3 50.8431 17.3025C50.8507 17.305 50.8576 17.309 50.8635 17.3142C50.8693 17.3194 50.874 17.3257 50.8771 17.3326C50.8803 17.3396 50.882 17.3471 50.8819 17.3547V18.6084H51.9378C51.9544 18.6084 51.9702 18.6147 51.9819 18.6257C51.9936 18.6368 52.0002 18.6518 52.0002 18.6675V19.685C52.0002 19.7001 51.9938 19.7147 51.9825 19.7254C51.9712 19.7361 51.9558 19.7421 51.9398 19.7421H50.8819V21.819C50.8819 22.0343 51.0106 22.1657 51.3264 22.1657H51.9298C51.938 22.1657 51.9461 22.1673 51.9536 22.1702C51.9612 22.1732 51.9681 22.1775 51.9739 22.183C51.9796 22.1885 51.9842 22.195 51.9874 22.2022C51.9905 22.2094 51.9921 22.217 51.9921 22.2248V23.1184C51.9919 23.1303 51.9879 23.1419 51.9808 23.1518C51.9736 23.1616 51.9636 23.1692 51.9519 23.1737C51.6362 23.3105 51.2934 23.3819 50.9463 23.3833C49.8803 23.3833 49.4479 22.7926 49.4479 21.96V21.9638Z" fill="#053D4E"/>
<path id="path12" d="M32.4189 23.2342V18.6613C32.4189 18.6457 32.4255 18.6306 32.4372 18.6196C32.4489 18.6085 32.4648 18.6023 32.4813 18.6023H33.6599C33.6728 18.6021 33.6855 18.6059 33.696 18.6131C33.7065 18.6203 33.7143 18.6306 33.7182 18.6423L33.855 19.1072H33.8751C34.0487 18.9087 34.2686 18.7512 34.5174 18.647C34.7663 18.5429 35.0373 18.4949 35.3091 18.507C36.011 18.507 36.3489 18.8061 36.5379 19.2691H36.5781C36.7419 19.0232 36.9719 18.8229 37.2444 18.689C37.5169 18.555 37.8222 18.4922 38.1288 18.507C39.1565 18.507 39.4863 19.1434 39.4863 19.9875V23.2266C39.4863 23.2422 39.4798 23.2573 39.4681 23.2683C39.4564 23.2794 39.4405 23.2856 39.424 23.2856H38.1147C38.0982 23.2856 38.0823 23.2794 38.0706 23.2683C38.0589 23.2573 38.0523 23.2422 38.0523 23.2266V20.1323C38.0523 19.7664 37.6883 19.6254 37.4309 19.6254C37.1332 19.6254 36.6908 19.8045 36.6706 20.2161V23.2342C36.6709 23.2417 36.6696 23.2492 36.6668 23.2562C36.664 23.2632 36.6598 23.2697 36.6544 23.2752C36.649 23.2807 36.6425 23.2851 36.6353 23.2882C36.628 23.2913 36.6202 23.293 36.6123 23.2933H35.295C35.279 23.2923 35.2639 23.2857 35.2527 23.2748C35.2416 23.2639 35.2351 23.2494 35.2346 23.2342V20.1323C35.2346 19.7664 34.8485 19.6254 34.5669 19.6254C34.3822 19.6238 34.2042 19.6907 34.0708 19.8117C33.9374 19.9328 33.8592 20.0984 33.8529 20.2733V23.2342C33.8525 23.2494 33.846 23.2639 33.8349 23.2748C33.8237 23.2857 33.8086 23.2923 33.7926 23.2933H32.4833C32.4669 23.2933 32.4511 23.2874 32.4392 23.2768C32.4272 23.2661 32.42 23.2516 32.4189 23.2361V23.2342Z" fill="#053D4E"/>
<path id="path14" d="M40.3489 19.6391V18.7988C40.3495 18.7854 40.3547 18.7725 40.3638 18.7621C40.3729 18.7518 40.3853 18.7446 40.3992 18.7417C41.0273 18.612 41.6671 18.5399 42.3098 18.5264C43.5749 18.5264 44.321 18.816 44.321 20.1097V23.2364C44.321 23.2521 44.3145 23.2671 44.3028 23.2782C44.2911 23.2893 44.2752 23.2955 44.2587 23.2955H43.0117C42.9983 23.2954 42.9852 23.291 42.9746 23.2831C42.964 23.2752 42.9566 23.2641 42.9534 23.2517L42.8106 22.7887H42.8669C42.511 23.2574 42.0383 23.3888 41.4591 23.3888C40.5299 23.3888 40.0352 22.7048 40.0352 21.8989C40.0352 20.6813 40.9744 20.4374 41.6763 20.4374H42.883V20.1326C42.883 19.7515 42.5814 19.6658 41.435 19.6658C40.9503 19.6658 40.4294 19.702 40.4072 19.702C40.3911 19.7001 40.3762 19.6927 40.3654 19.6811C40.3547 19.6695 40.3488 19.6545 40.3489 19.6391ZM42.8871 21.2758H42.1027C41.6864 21.2758 41.4169 21.4263 41.4169 21.8474C41.4169 22.3009 41.7608 22.4038 42.0906 22.4038C42.1908 22.4089 42.2912 22.3953 42.3859 22.3637C42.4805 22.3321 42.5677 22.2832 42.6424 22.2196C42.7171 22.1561 42.7779 22.0793 42.8212 21.9935C42.8646 21.9077 42.8897 21.8147 42.8951 21.7197C42.8971 21.6937 42.8971 21.6676 42.8951 21.6416V21.2606L42.8871 21.2758Z" fill="#053D4E"/>
<path id="path16" d="M45.1538 23.2341V18.6613C45.1543 18.6532 45.1565 18.6453 45.1604 18.6381C45.1643 18.631 45.1697 18.6247 45.1764 18.6196C45.183 18.6146 45.1907 18.6109 45.199 18.6089C45.2072 18.6069 45.2158 18.6065 45.2242 18.6079H46.3907C46.4052 18.6073 46.4194 18.6118 46.4306 18.6207C46.4418 18.6295 46.4491 18.6419 46.451 18.6555L46.5898 19.3662H46.6099C46.7557 19.1039 46.9757 18.8852 47.2454 18.7348C47.515 18.5843 47.8236 18.5081 48.1364 18.5145C48.1446 18.5145 48.1527 18.5161 48.1603 18.519C48.1679 18.522 48.1747 18.5264 48.1805 18.5318C48.1863 18.5373 48.1909 18.5438 48.194 18.551C48.1972 18.5582 48.1988 18.5659 48.1988 18.5736V19.8464C48.1988 19.8621 48.1922 19.8771 48.1805 19.8882C48.1688 19.8992 48.153 19.9055 48.1364 19.9055H47.8026C46.9036 19.9055 46.5959 20.2465 46.5959 20.6676V23.2265C46.5954 23.2417 46.5889 23.2562 46.5778 23.2671C46.5666 23.278 46.5515 23.2846 46.5355 23.2856H45.2242C45.2077 23.2872 45.1912 23.2828 45.1781 23.2732C45.165 23.2636 45.1563 23.2496 45.1538 23.2341Z" fill="#053D4E"/>
<path id="path18" d="M23.4492 20.9516C23.4492 19.4617 24.0526 18.5166 25.8023 18.5166C27.5521 18.5166 28.1655 19.4693 28.1655 20.9516C28.1655 22.434 27.5521 23.3867 25.8023 23.3867C24.0526 23.3867 23.4492 22.4512 23.4492 20.9516ZM24.9938 20.9516C24.9938 21.7576 25.1185 22.2511 25.7983 22.2511C26.4781 22.2511 26.6169 21.7576 26.6169 20.9516C26.6169 20.1457 26.4902 19.6598 25.7983 19.6598C25.1065 19.6598 24.9938 20.1457 24.9938 20.9516Z" fill="#053D4E"/>
<path id="path20" d="M15.9068 20.4871C15.9752 19.2124 15.5046 17.128 14.3863 15.4227C14.3562 15.3788 14.3059 15.396 14.3159 15.4417C14.3903 15.7008 14.4084 16.1715 13.974 16.1429C13.2017 16.0933 14.0002 14.5271 12.3047 13.4411C12.3015 13.4378 12.2976 13.4352 12.2933 13.4334C12.289 13.4316 12.2843 13.4306 12.2796 13.4306C12.2749 13.4306 12.2702 13.4316 12.2659 13.4334C12.2615 13.4352 12.2576 13.4378 12.2544 13.4411C12.2495 13.4471 12.2469 13.4545 12.2469 13.462C12.2469 13.4696 12.2495 13.477 12.2544 13.483C12.3711 13.6926 12.4395 14.3461 12.172 14.5691C11.9568 14.7482 11.5686 14.7005 11.1805 14.1118C10.9216 13.7061 10.7875 13.24 10.7932 12.7661C10.7989 12.2921 10.9441 11.829 11.2126 11.429C11.2448 11.3795 11.2006 11.3604 11.1644 11.3719C8.83136 12.1016 8.36476 14.7082 7.86799 15.657C7.78553 15.8171 7.71312 15.899 7.57033 15.8914C7.14596 15.8647 7.45167 15.0054 7.59849 14.7062C7.60044 14.702 7.60147 14.6974 7.60152 14.6928C7.60156 14.6882 7.60061 14.6836 7.59873 14.6793C7.59685 14.675 7.59408 14.6712 7.59058 14.6679C7.58708 14.6647 7.58293 14.6622 7.57837 14.6605C7.57273 14.6569 7.56607 14.655 7.55927 14.655C7.55246 14.655 7.54581 14.6569 7.54016 14.6605C6.17686 16.0802 5.30575 17.8617 5.04425 19.765C5.04425 19.7211 5.02413 19.9212 5.01207 20.0679C5.01199 20.1259 5.00796 20.1838 5 20.2413V20.449C5.01292 21.8054 5.58769 23.1027 6.60052 24.0616C7.61335 25.0204 8.98318 25.564 10.415 25.5752C11.8467 25.5864 13.2259 25.0645 14.2554 24.1217C15.2848 23.1789 15.8822 21.8908 15.9189 20.5347C15.9103 20.5202 15.9062 20.5037 15.9068 20.4871ZM10.4303 22.8898C9.92896 22.8875 9.43965 22.7443 9.02434 22.4783C8.60902 22.2123 8.28639 21.8355 8.09732 21.3957C7.90826 20.9558 7.86126 20.4727 7.96229 20.0075C8.06333 19.5423 8.30784 19.116 8.66485 18.7826C9.02187 18.4492 9.47531 18.2237 9.96773 18.1346C10.4602 18.0456 10.9694 18.097 11.4309 18.2824C11.8925 18.4678 12.2855 18.7789 12.5603 19.1761C12.8351 19.5733 12.9792 20.0389 12.9745 20.5138C12.9681 21.148 12.6968 21.754 12.2201 22.1993C11.7433 22.6446 11.0998 22.8928 10.4303 22.8898Z" fill="#F04E23"/>
</g>
</g>
</g>
</svg>
