<svg width="57" height="39" viewBox="0 0 57 39" fill="none" xmlns="http://www.w3.org/2000/svg">
<g id="Payment Method/Mastercard">
<rect x="0.799662" y="1.29966" width="55.4007" height="36.4007" rx="6.99034" fill="#151515"/>
<g id="Vector">
<path d="M47.5 19.3675C47.5 25.8585 42.2485 31.11 35.7575 31.11C33.0176 31.11 30.506 30.1641 28.5163 28.5984C31.2562 26.4456 32.985 23.1186 32.985 19.3675C32.985 15.6164 31.2236 12.2894 28.5163 10.1366C30.506 8.57093 33.0176 7.625 35.7575 7.625C42.2485 7.625 47.5 12.9091 47.5 19.3675Z" fill="#F79E1B"/>
<path d="M28.5163 10.1366C28.5163 10.1366 28.5163 10.1366 28.5163 10.1366C31.2236 12.2894 32.985 15.6164 32.985 19.3675C32.985 23.1186 31.2562 26.4456 28.5163 28.5984L28.4836 28.5984C25.7763 26.4782 24.015 23.1186 24.015 19.3676C24.015 15.6165 25.7764 12.2894 28.4837 10.1367C28.4836 10.1366 28.4837 10.1367 28.4837 10.1367L28.5163 10.1366Z" fill="#FF5F00"/>
<path d="M24.015 19.3676C24.015 15.6165 25.7764 12.2894 28.4837 10.1367C26.494 8.57099 23.9824 7.62505 21.2425 7.62505C14.7515 7.62505 9.5 12.8766 9.5 19.3675C9.5 25.8585 14.7515 31.11 21.2425 31.11C23.9824 31.11 26.4939 30.1641 28.4836 28.5984C25.7763 26.4782 24.015 23.1186 24.015 19.3676Z" fill="#EB001B"/>
</g>
<rect x="0.799662" y="1.29966" width="55.4007" height="36.4007" rx="6.99034" stroke="#CCCCCC" stroke-width="1.59932"/>
</g>
</svg>
