<svg width="57" height="38" viewBox="0 0 57 38" fill="none" xmlns="http://www.w3.org/2000/svg">
<g id="Payment Method/PayPal">
<rect x="0.5" y="0.5" width="56" height="37" rx="7.5" fill="white"/>
<g id="Vector">
<path fill-rule="evenodd" clip-rule="evenodd" d="M14.7579 14.251H11.9658C11.7747 14.251 11.6122 14.3898 11.5824 14.5784L10.4531 21.7373C10.4307 21.8786 10.5401 22.006 10.6834 22.006H12.0164C12.2074 22.006 12.3699 21.8671 12.3997 21.6782L12.7043 19.7473C12.7337 19.5582 12.8966 19.4196 13.0873 19.4196H13.9711C15.8104 19.4196 16.8718 18.5296 17.1492 16.7661C17.2741 15.9946 17.1545 15.3884 16.793 14.9638C16.3963 14.4977 15.6923 14.251 14.7579 14.251ZM15.08 16.8657C14.9273 17.8675 14.1618 17.8675 13.4216 17.8675H13.0003L13.2959 15.9965C13.3134 15.8836 13.4114 15.8002 13.5257 15.8002H13.7188C14.223 15.8002 14.6987 15.8002 14.9445 16.0876C15.0909 16.2591 15.1359 16.5138 15.08 16.8657ZM23.1041 16.8336H21.7671C21.6531 16.8336 21.5547 16.9169 21.5371 17.0301L21.478 17.4039L21.3845 17.2685C21.095 16.8483 20.4496 16.708 19.8054 16.708C18.3277 16.708 17.0659 17.8269 16.8201 19.3965C16.6923 20.1794 16.8739 20.928 17.3181 21.4502C17.7256 21.9302 18.3087 22.1303 19.0022 22.1303C20.1927 22.1303 20.853 21.3648 20.853 21.3648L20.7933 21.7364C20.7708 21.8785 20.8802 22.0058 21.0227 22.0058H22.2271C22.4187 22.0058 22.5802 21.8669 22.6105 21.678L23.3331 17.1022C23.356 16.9615 23.247 16.8336 23.1041 16.8336ZM21.2403 19.4356C21.1113 20.1994 20.505 20.7121 19.7319 20.7121C19.3436 20.7121 19.0332 20.5876 18.8341 20.3517C18.6365 20.1174 18.5613 19.7838 18.6242 19.4124C18.7447 18.6551 19.3612 18.1257 20.1226 18.1257C20.5022 18.1257 20.8109 18.2517 21.0142 18.4898C21.2178 18.7303 21.2987 19.0658 21.2403 19.4356ZM28.8815 16.8334H30.2252C30.4134 16.8334 30.5231 17.0444 30.4162 17.1988L25.9474 23.6485C25.875 23.753 25.7558 23.8152 25.6285 23.8152H24.2865C24.0975 23.8152 23.9872 23.6024 24.0966 23.4477L25.4881 21.4838L24.0082 17.1411C23.957 16.9902 24.0685 16.8334 24.229 16.8334H25.5493C25.7209 16.8334 25.8722 16.946 25.9217 17.1102L26.7071 19.733L28.5603 17.0036C28.6329 16.8971 28.7534 16.8334 28.8815 16.8334Z" fill="#253B80"/>
<path fill-rule="evenodd" clip-rule="evenodd" d="M43.4501 21.7367L44.596 14.4468C44.6135 14.3337 44.7116 14.2504 44.8255 14.25H46.1155C46.258 14.25 46.3674 14.3777 46.3449 14.519L45.2149 21.6776C45.1854 21.8665 45.0229 22.0054 44.8316 22.0054H43.6794C43.537 22.0054 43.4276 21.878 43.4501 21.7367ZM34.6744 14.2504H31.8817C31.6911 14.2504 31.5286 14.3892 31.4988 14.5778L30.3695 21.7367C30.347 21.878 30.4564 22.0054 30.5991 22.0054H32.0319C32.1651 22.0054 32.2791 21.9082 32.2999 21.776L32.6203 19.7467C32.6498 19.5576 32.8126 19.419 33.0032 19.419H33.8867C35.7263 19.419 36.7876 18.529 37.0651 16.7655C37.1904 15.994 37.07 15.3878 36.7088 14.9631C36.3122 14.4971 35.6088 14.2504 34.6744 14.2504ZM34.9965 16.8651C34.8442 17.8669 34.0787 17.8669 33.338 17.8669H32.9171L33.2132 15.9959C33.2307 15.8829 33.3278 15.7996 33.4425 15.7996H33.6356C34.1395 15.7996 34.6156 15.7996 34.8612 16.087C35.0078 16.2585 35.0524 16.5132 34.9965 16.8651ZM43.0199 16.833H41.6838C41.5689 16.833 41.4714 16.9163 41.4542 17.0294L41.3951 17.4033L41.3012 17.2678C41.0117 16.8477 40.3667 16.7074 39.7224 16.7074C38.2448 16.7074 36.9833 17.8263 36.7375 19.3959C36.6102 20.1788 36.791 20.9274 37.2351 21.4496C37.6434 21.9296 38.2257 22.1297 38.9193 22.1297C40.1098 22.1297 40.7699 21.3642 40.7699 21.3642L40.7104 21.7358C40.6879 21.8778 40.7973 22.0052 40.9407 22.0052H42.1446C42.3352 22.0052 42.4977 21.8663 42.5275 21.6774L43.2506 17.1016C43.2727 16.9609 43.1633 16.833 43.0199 16.833ZM41.1563 19.435C41.028 20.1988 40.4209 20.7115 39.6476 20.7115C39.2601 20.7115 38.9491 20.587 38.7498 20.3511C38.5522 20.1168 38.4779 19.7832 38.5401 19.4118C38.6612 18.6545 39.2769 18.1251 40.0383 18.1251C40.4181 18.1251 40.7266 18.2511 40.9301 18.4892C41.1345 18.7296 41.2154 19.0651 41.1563 19.435Z" fill="#179BD7"/>
</g>
<rect x="0.5" y="0.5" width="56" height="37" rx="7.5" stroke="#CCCCCC"/>
</g>
</svg>
