<svg width="87" height="38" viewBox="0 0 87 38" fill="none" xmlns="http://www.w3.org/2000/svg">
<rect x="0.5" y="0.5" width="86" height="37" rx="5.5" fill="white" stroke="#D9D9D9"/>
<path d="M24.2 12H9.8C8.801 12 8.009 12.7788 8.009 13.75L8 24.25C8 25.2212 8.801 26 9.8 26H24.2C25.199 26 26 25.2212 26 24.25V13.75C26 12.7788 25.199 12 24.2 12ZM24.2 24.25H9.8V19H24.2V24.25ZM24.2 15.5H9.8V13.75H24.2V15.5Z" fill="#343434"/>
<path d="M6 13V26C6 27.1046 6.89543 28 8 28H26" stroke="#343434"/>
<path d="M34.3979 17.3151C35.0178 17.3151 35.5534 17.432 36.0047 17.6658C36.4615 17.8942 36.8095 18.2232 37.0487 18.6527C37.2934 19.0823 37.4158 19.588 37.4158 20.1698C37.4158 20.7516 37.2934 21.2573 37.0487 21.6868C36.8095 22.111 36.4615 22.4372 36.0047 22.6656C35.5534 22.8885 35.0178 23 34.3979 23H32.628V17.3151H34.3979ZM34.3979 22.3883C35.132 22.3883 35.6921 22.1952 36.0781 21.8092C36.4642 21.4177 36.6572 20.8712 36.6572 20.1698C36.6572 19.4629 36.4615 18.911 36.07 18.5141C35.6839 18.1171 35.1266 17.9187 34.3979 17.9187H33.3703V22.3883H34.3979ZM40.3441 23.0734C39.9254 23.0734 39.5448 22.9783 39.2022 22.7879C38.8651 22.5976 38.5987 22.3285 38.4029 21.9805C38.2126 21.627 38.1174 21.2192 38.1174 20.757C38.1174 20.3003 38.2153 19.8979 38.4111 19.5499C38.6123 19.1965 38.8841 18.9273 39.2267 18.7424C39.5693 18.5521 39.9526 18.457 40.3767 18.457C40.8008 18.457 41.1842 18.5521 41.5268 18.7424C41.8693 18.9273 42.1385 19.1937 42.3342 19.5417C42.5354 19.8897 42.636 20.2948 42.636 20.757C42.636 21.2192 42.5327 21.627 42.3261 21.9805C42.1249 22.3285 41.8503 22.5976 41.5023 22.7879C41.1543 22.9783 40.7682 23.0734 40.3441 23.0734ZM40.3441 22.4209C40.6105 22.4209 40.8607 22.3584 41.0945 22.2333C41.3283 22.1082 41.5159 21.9207 41.6573 21.6705C41.8041 21.4204 41.8775 21.1159 41.8775 20.757C41.8775 20.3982 41.8068 20.0937 41.6654 19.8435C41.524 19.5934 41.3392 19.4085 41.1108 19.2889C40.8824 19.1638 40.635 19.1013 40.3686 19.1013C40.0967 19.1013 39.8466 19.1638 39.6182 19.2889C39.3953 19.4085 39.2158 19.5934 39.0799 19.8435C38.9439 20.0937 38.876 20.3982 38.876 20.757C38.876 21.1213 38.9412 21.4286 39.0717 21.6787C39.2077 21.9288 39.3871 22.1164 39.61 22.2415C39.833 22.3611 40.0777 22.4209 40.3441 22.4209ZM43.9952 17.8045C43.8539 17.8045 43.7342 17.7555 43.6364 17.6577C43.5385 17.5598 43.4895 17.4402 43.4895 17.2988C43.4895 17.1574 43.5385 17.0378 43.6364 16.9399C43.7342 16.842 43.8539 16.7931 43.9952 16.7931C44.1312 16.7931 44.2454 16.842 44.3378 16.9399C44.4357 17.0378 44.4846 17.1574 44.4846 17.2988C44.4846 17.4402 44.4357 17.5598 44.3378 17.6577C44.2454 17.7555 44.1312 17.8045 43.9952 17.8045ZM44.3541 18.5304V23H43.6119V18.5304H44.3541ZM47.2014 23.0734C46.8588 23.0734 46.5516 23.0163 46.2797 22.9021C46.0079 22.7825 45.7931 22.6194 45.6354 22.4127C45.4777 22.2007 45.3907 21.9587 45.3744 21.6868H46.1411C46.1628 21.9098 46.2662 22.0919 46.451 22.2333C46.6413 22.3747 46.8887 22.4454 47.1932 22.4454C47.476 22.4454 47.6989 22.3828 47.8621 22.2578C48.0252 22.1327 48.1067 21.975 48.1067 21.7847C48.1067 21.589 48.0197 21.4449 47.8457 21.3524C47.6717 21.2546 47.4026 21.1594 47.0383 21.067C46.7066 20.98 46.4347 20.893 46.2227 20.806C46.016 20.7135 45.8366 20.5803 45.6843 20.4063C45.5375 20.2269 45.4641 19.9931 45.4641 19.7049C45.4641 19.4765 45.5321 19.2672 45.668 19.0768C45.804 18.8865 45.997 18.737 46.2471 18.6282C46.4972 18.5141 46.7827 18.457 47.1035 18.457C47.5983 18.457 47.998 18.582 48.3025 18.8322C48.607 19.0823 48.7701 19.4248 48.7919 19.8598H48.0497C48.0333 19.626 47.9382 19.4384 47.7642 19.2971C47.5956 19.1557 47.3672 19.085 47.0791 19.085C46.8126 19.085 46.6006 19.1421 46.4429 19.2563C46.2852 19.3705 46.2063 19.52 46.2063 19.7049C46.2063 19.8517 46.2526 19.974 46.345 20.0719C46.4429 20.1643 46.5625 20.2405 46.7039 20.3003C46.8507 20.3547 47.0519 20.4172 47.3074 20.4879C47.6282 20.5749 47.8892 20.6619 48.0904 20.7489C48.2916 20.8304 48.4629 20.9555 48.6043 21.1241C48.7511 21.2926 48.8272 21.5128 48.8327 21.7847C48.8327 22.0294 48.7647 22.2496 48.6287 22.4454C48.4928 22.6411 48.2998 22.7961 48.0497 22.9103C47.805 23.019 47.5222 23.0734 47.2014 23.0734ZM51.7708 20.8C51.7708 20.3467 51.8615 19.952 52.0428 19.616C52.2242 19.2747 52.4748 19.0107 52.7948 18.824C53.1202 18.6373 53.4908 18.544 53.9068 18.544C54.4455 18.544 54.8882 18.6747 55.2348 18.936C55.5868 19.1973 55.8188 19.56 55.9308 20.024H55.1468C55.0722 19.7573 54.9255 19.5467 54.7068 19.392C54.4935 19.2373 54.2268 19.16 53.9068 19.16C53.4908 19.16 53.1548 19.304 52.8988 19.592C52.6428 19.8747 52.5148 20.2773 52.5148 20.8C52.5148 21.328 52.6428 21.736 52.8988 22.024C53.1548 22.312 53.4908 22.456 53.9068 22.456C54.2268 22.456 54.4935 22.3813 54.7068 22.232C54.9202 22.0827 55.0668 21.8693 55.1468 21.592H55.9308C55.8135 22.04 55.5788 22.4 55.2268 22.672C54.8748 22.9387 54.4348 23.072 53.9068 23.072C53.4908 23.072 53.1202 22.9787 52.7948 22.792C52.4748 22.6053 52.2242 22.3413 52.0428 22C51.8615 21.6587 51.7708 21.2587 51.7708 20.8ZM56.6302 20.792C56.6302 20.344 56.7209 19.952 56.9022 19.616C57.0836 19.2747 57.3316 19.0107 57.6462 18.824C57.9662 18.6373 58.3209 18.544 58.7102 18.544C59.0942 18.544 59.4276 18.6267 59.7102 18.792C59.9929 18.9573 60.2036 19.1653 60.3422 19.416V18.616H61.0782V23H60.3422V22.184C60.1982 22.44 59.9822 22.6533 59.6942 22.824C59.4116 22.9893 59.0809 23.072 58.7022 23.072C58.3129 23.072 57.9609 22.976 57.6462 22.784C57.3316 22.592 57.0836 22.3227 56.9022 21.976C56.7209 21.6293 56.6302 21.2347 56.6302 20.792ZM60.3422 20.8C60.3422 20.4693 60.2756 20.1813 60.1422 19.936C60.0089 19.6907 59.8276 19.504 59.5982 19.376C59.3742 19.2427 59.1262 19.176 58.8542 19.176C58.5822 19.176 58.3342 19.24 58.1102 19.368C57.8862 19.496 57.7076 19.6827 57.5742 19.928C57.4409 20.1733 57.3742 20.4613 57.3742 20.792C57.3742 21.128 57.4409 21.4213 57.5742 21.672C57.7076 21.9173 57.8862 22.1067 58.1102 22.24C58.3342 22.368 58.5822 22.432 58.8542 22.432C59.1262 22.432 59.3742 22.368 59.5982 22.24C59.8276 22.1067 60.0089 21.9173 60.1422 21.672C60.2756 21.4213 60.3422 21.1307 60.3422 20.8ZM63.0365 19.328C63.1645 19.0773 63.3458 18.8827 63.5805 18.744C63.8205 18.6053 64.1111 18.536 64.4525 18.536V19.288H64.2605C63.4445 19.288 63.0365 19.7307 63.0365 20.616V23H62.3085V18.616H63.0365V19.328ZM66.1808 19.216V21.8C66.1808 22.0133 66.2262 22.1653 66.3168 22.256C66.4075 22.3413 66.5648 22.384 66.7888 22.384H67.3248V23H66.6688C66.2635 23 65.9595 22.9067 65.7568 22.72C65.5542 22.5333 65.4528 22.2267 65.4528 21.8V19.216H64.8848V18.616H65.4528V17.512H66.1808V18.616H67.3248V19.216H66.1808ZM70.1189 23.072C69.7082 23.072 69.3349 22.9787 68.9989 22.792C68.6682 22.6053 68.4069 22.3413 68.2149 22C68.0282 21.6533 67.9349 21.2533 67.9349 20.8C67.9349 20.352 68.0309 19.9573 68.2229 19.616C68.4202 19.2693 68.6869 19.0053 69.0229 18.824C69.3589 18.6373 69.7349 18.544 70.1509 18.544C70.5669 18.544 70.9429 18.6373 71.2789 18.824C71.6149 19.0053 71.8789 19.2667 72.0709 19.608C72.2682 19.9493 72.3669 20.3467 72.3669 20.8C72.3669 21.2533 72.2656 21.6533 72.0629 22C71.8656 22.3413 71.5962 22.6053 71.2549 22.792C70.9136 22.9787 70.5349 23.072 70.1189 23.072ZM70.1189 22.432C70.3802 22.432 70.6256 22.3707 70.8549 22.248C71.0842 22.1253 71.2682 21.9413 71.4069 21.696C71.5509 21.4507 71.6229 21.152 71.6229 20.8C71.6229 20.448 71.5536 20.1493 71.4149 19.904C71.2762 19.6587 71.0949 19.4773 70.8709 19.36C70.6469 19.2373 70.4042 19.176 70.1429 19.176C69.8762 19.176 69.6309 19.2373 69.4069 19.36C69.1882 19.4773 69.0122 19.6587 68.8789 19.904C68.7456 20.1493 68.6789 20.448 68.6789 20.8C68.6789 21.1573 68.7429 21.4587 68.8709 21.704C69.0042 21.9493 69.1802 22.1333 69.3989 22.256C69.6176 22.3733 69.8576 22.432 70.1189 22.432ZM68.9829 18.088C69.0202 17.816 69.1082 17.608 69.2469 17.464C69.3909 17.32 69.5696 17.248 69.7829 17.248C69.8842 17.248 69.9696 17.2667 70.0389 17.304C70.1136 17.336 70.2016 17.384 70.3029 17.448C70.3776 17.5013 70.4442 17.544 70.5029 17.576C70.5616 17.6027 70.6256 17.616 70.6949 17.616C70.7856 17.616 70.8629 17.5867 70.9269 17.528C70.9909 17.4693 71.0309 17.384 71.0469 17.272H71.4629C71.4309 17.5387 71.3429 17.744 71.1989 17.888C71.0549 18.032 70.8762 18.104 70.6629 18.104C70.5616 18.104 70.4709 18.088 70.3909 18.056C70.3162 18.0187 70.2309 17.9653 70.1349 17.896C70.0496 17.8427 69.9802 17.8027 69.9269 17.776C69.8789 17.7493 69.8202 17.736 69.7509 17.736C69.6602 17.736 69.5829 17.7653 69.5189 17.824C69.4602 17.8827 69.4229 17.9707 69.4069 18.088H68.9829ZM77.3241 20.64C77.3241 20.7787 77.3161 20.9253 77.3001 21.08H73.7961C73.8228 21.512 73.9694 21.8507 74.2361 22.096C74.5081 22.336 74.8361 22.456 75.2201 22.456C75.5348 22.456 75.7961 22.384 76.0041 22.24C76.2174 22.0907 76.3668 21.8933 76.4521 21.648H77.2361C77.1188 22.0693 76.8841 22.4133 76.5321 22.68C76.1801 22.9413 75.7428 23.072 75.2201 23.072C74.8041 23.072 74.4308 22.9787 74.1001 22.792C73.7748 22.6053 73.5188 22.3413 73.3321 22C73.1454 21.6533 73.0521 21.2533 73.0521 20.8C73.0521 20.3467 73.1428 19.9493 73.3241 19.608C73.5054 19.2667 73.7588 19.0053 74.0841 18.824C74.4148 18.6373 74.7934 18.544 75.2201 18.544C75.6361 18.544 76.0041 18.6347 76.3241 18.816C76.6441 18.9973 76.8894 19.248 77.0601 19.568C77.2361 19.8827 77.3241 20.24 77.3241 20.64ZM76.5721 20.488C76.5721 20.2107 76.5108 19.9733 76.3881 19.776C76.2654 19.5733 76.0974 19.4213 75.8841 19.32C75.6761 19.2133 75.4441 19.16 75.1881 19.16C74.8201 19.16 74.5054 19.2773 74.2441 19.512C73.9881 19.7467 73.8414 20.072 73.8041 20.488H76.5721ZM79.837 23.072C79.501 23.072 79.1997 23.016 78.933 22.904C78.6664 22.7867 78.4557 22.6267 78.301 22.424C78.1464 22.216 78.061 21.9787 78.045 21.712H78.797C78.8184 21.9307 78.9197 22.1093 79.101 22.248C79.2877 22.3867 79.5304 22.456 79.829 22.456C80.1064 22.456 80.325 22.3947 80.485 22.272C80.645 22.1493 80.725 21.9947 80.725 21.808C80.725 21.616 80.6397 21.4747 80.469 21.384C80.2984 21.288 80.0344 21.1947 79.677 21.104C79.3517 21.0187 79.085 20.9333 78.877 20.848C78.6744 20.7573 78.4984 20.6267 78.349 20.456C78.205 20.28 78.133 20.0507 78.133 19.768C78.133 19.544 78.1997 19.3387 78.333 19.152C78.4664 18.9653 78.6557 18.8187 78.901 18.712C79.1464 18.6 79.4264 18.544 79.741 18.544C80.2264 18.544 80.6184 18.6667 80.917 18.912C81.2157 19.1573 81.3757 19.4933 81.397 19.92H80.669C80.653 19.6907 80.5597 19.5067 80.389 19.368C80.2237 19.2293 79.9997 19.16 79.717 19.16C79.4557 19.16 79.2477 19.216 79.093 19.328C78.9384 19.44 78.861 19.5867 78.861 19.768C78.861 19.912 78.9064 20.032 78.997 20.128C79.093 20.2187 79.2104 20.2933 79.349 20.352C79.493 20.4053 79.6904 20.4667 79.941 20.536C80.2557 20.6213 80.5117 20.7067 80.709 20.792C80.9064 20.872 81.0744 20.9947 81.213 21.16C81.357 21.3253 81.4317 21.5413 81.437 21.808C81.437 22.048 81.3704 22.264 81.237 22.456C81.1037 22.648 80.9144 22.8 80.669 22.912C80.429 23.0187 80.1517 23.072 79.837 23.072Z" fill="black"/>
</svg>
