<svg width="57" height="38" viewBox="0 0 57 38" fill="none" xmlns="http://www.w3.org/2000/svg">
<g id="Payment Method/Visa">
<rect x="0.5" y="0.5" width="56" height="37" rx="7.5" fill="white"/>
<g id="Vector">
<path d="M38.592 12.461C37.89 12.1825 36.7765 11.875 35.3997 11.875C31.8848 11.875 29.4097 13.7493 29.3945 16.429C29.3653 18.4061 31.1666 19.5042 32.5139 20.1634C33.8909 20.8371 34.359 21.2767 34.359 21.8772C34.345 22.7993 33.2463 23.2244 32.2215 23.2244C30.8005 23.2244 30.0391 23.0053 28.882 22.4922L28.4133 22.2723L27.9153 25.3623C28.75 25.7426 30.288 26.0801 31.8848 26.0949C35.6194 26.0949 38.0508 24.2495 38.0796 21.3939C38.0938 19.8269 37.1426 18.6262 35.092 17.6451C33.8471 17.0152 33.0847 16.5906 33.0847 15.9461C33.0993 15.3603 33.7295 14.7602 35.1348 14.7602C36.2919 14.7308 37.142 15.009 37.7861 15.2873L38.108 15.4335L38.592 12.461Z" fill="#3362AB"/>
<path d="M25.6894 25.8897H22.1302L24.3564 12.1245H27.9155L25.6894 25.8897Z" fill="#3362AB"/>
<path fill-rule="evenodd" clip-rule="evenodd" d="M47.716 12.1245H44.9629C44.1139 12.1245 43.4689 12.3733 43.1026 13.2666L37.8158 25.8895H41.5504C41.5504 25.8895 42.1653 24.1906 42.2974 23.8247H46.8672C46.9694 24.3079 47.2919 25.8895 47.2919 25.8895H50.5874L47.716 12.1245ZM43.3226 21.0132C43.6157 20.2224 44.7436 17.1618 44.7436 17.1618C44.7376 17.1736 44.7835 17.0464 44.8519 16.8568L44.8527 16.8545L44.8533 16.853C44.9554 16.5697 45.1071 16.1494 45.2118 15.8439L45.4606 17.03C45.4606 17.03 46.1346 20.325 46.281 21.0132H43.3226Z" fill="#3362AB"/>
<path d="M19.1574 12.1245L15.6717 21.5111L15.2908 19.6074L15.2905 19.6062L14.0459 13.2816C13.841 12.4025 13.2112 12.1535 12.435 12.1245H6.70849L6.6499 12.4026C8.04657 12.7598 9.29576 13.2745 10.3903 13.9144L13.5627 25.8751H17.3265L22.921 12.1245H19.1574Z" fill="#3362AB"/>
</g>
<rect x="0.5" y="0.5" width="56" height="37" rx="7.5" stroke="#CCCCCC"/>
</g>
</svg>
